<svg xmlns="http://www.w3.org/2000/svg" xmlns:xlink="http://www.w3.org/1999/xlink" id="Layer_1" x="0" y="0" version="1.1" viewBox="0 0 1173.5 353" style="enable-background:new 0 0 1173.5 353" xml:space="preserve"><style type="text/css">.st0{fill:#e2e2e2}.st1{fill:none;stroke:#848484;stroke-width:2;stroke-miterlimit:10}.st2{fill:#767676}.st3,.st4{fill:none;stroke-miterlimit:10}.st3{stroke:#005d91;stroke-width:2;stroke-linecap:round;stroke-linejoin:round}.st4{stroke:#7f7f7f;stroke-width:.5}.st5{fill:#f4f4f4}.st6{stroke-width:1.3261;stroke-miterlimit:10}.st6,.st7{fill:#fff;stroke:#b5b5b5}.st7,.st8{stroke-miterlimit:10}.st7{stroke-width:.75}.st8{fill:none;stroke:#005d91;stroke-width:.6439;stroke-linecap:round;stroke-linejoin:round}.st9{fill:#1ca0f1}.st10{fill:#fff}.st11{fill:#4468b0}.st12{fill:#eaeaea}.st13{fill:#686868}.st14{fill:#0097d9}</style><g id="XMLID_1_"><rect width="43" height="238" x="538.3" y="0" class="st0"/><rect width="25" height="238" x="402.3" y="0" class="st0"/><rect width="16" height="238" x="751.3" y="0" class="st0"/><rect width="50" height="238" x="916.3" y="0" class="st0"/><polyline points="1168.3 0 1168.3 238 42.3 238 42.3 0" class="st1"/><g id="XMLID_668_"><path id="XMLID_669_" d="M4.3,13.3H3.2V6.1L1,6.9v-1l3.1-1.2h0.2V13.3z" class="st2"/><path id="XMLID_671_" d="M12.8,9.7c0,1.3-0.2,2.2-0.7,2.8s-1.1,0.9-2,0.9c-0.9,0-1.6-0.3-2-0.9S7.4,11,7.4,9.8V8.4 c0-1.3,0.2-2.2,0.7-2.8s1.1-0.9,2-0.9c0.9,0,1.6,0.3,2,0.9s0.7,1.5,0.7,2.7V9.7z M11.7,8.2c0-0.9-0.1-1.6-0.4-2s-0.7-0.6-1.2-0.6 c-0.6,0-1,0.2-1.2,0.6S8.5,7.3,8.5,8.1v1.7c0,0.9,0.1,1.6,0.4,2s0.7,0.7,1.2,0.7c0.5,0,0.9-0.2,1.2-0.6s0.4-1.1,0.4-2V8.2z" class="st2"/><path id="XMLID_674_" d="M19.5,9.7c0,1.3-0.2,2.2-0.7,2.8s-1.1,0.9-2,0.9c-0.9,0-1.6-0.3-2-0.9s-0.7-1.5-0.7-2.7V8.4 c0-1.3,0.2-2.2,0.7-2.8s1.1-0.9,2-0.9c0.9,0,1.6,0.3,2,0.9s0.7,1.5,0.7,2.7V9.7z M18.5,8.2c0-0.9-0.1-1.6-0.4-2s-0.7-0.6-1.2-0.6 c-0.6,0-1,0.2-1.2,0.6s-0.4,1.1-0.4,1.9v1.7c0,0.9,0.1,1.6,0.4,2s0.7,0.7,1.2,0.7c0.5,0,0.9-0.2,1.2-0.6s0.4-1.1,0.4-2V8.2z" class="st2"/><path id="XMLID_677_" d="M26.3,9.7c0,1.3-0.2,2.2-0.7,2.8s-1.1,0.9-2,0.9c-0.9,0-1.6-0.3-2-0.9s-0.7-1.5-0.7-2.7V8.4 c0-1.3,0.2-2.2,0.7-2.8s1.1-0.9,2-0.9c0.9,0,1.6,0.3,2,0.9s0.7,1.5,0.7,2.7V9.7z M25.2,8.2c0-0.9-0.1-1.6-0.4-2s-0.7-0.6-1.2-0.6 c-0.6,0-1,0.2-1.2,0.6S22,7.3,22,8.1v1.7c0,0.9,0.1,1.6,0.4,2s0.7,0.7,1.2,0.7c0.5,0,0.9-0.2,1.2-0.6s0.4-1.1,0.4-2V8.2z" class="st2"/><path id="XMLID_680_" d="M13,61.2l-3.5,7.9H8.3l3.5-7.6H7.2v-0.9H13V61.2z" class="st2"/><path id="XMLID_682_" d="M14.7,64.9l0.4-4.3h4.4v1H16l-0.3,2.3c0.4-0.2,0.9-0.4,1.4-0.4c0.8,0,1.4,0.3,1.9,0.8 s0.7,1.2,0.7,2.1c0,0.9-0.2,1.6-0.7,2.1s-1.1,0.8-2,0.8c-0.8,0-1.4-0.2-1.8-0.6s-0.7-1-0.8-1.7h1c0.1,0.5,0.2,0.9,0.5,1.1 s0.7,0.4,1.1,0.4c0.5,0,0.9-0.2,1.2-0.5s0.4-0.8,0.4-1.4c0-0.6-0.2-1-0.5-1.4s-0.7-0.5-1.2-0.5c-0.5,0-0.8,0.1-1.1,0.3l-0.3,0.2 L14.7,64.9z" class="st2"/><path id="XMLID_684_" d="M26.3,65.5c0,1.3-0.2,2.2-0.7,2.8s-1.1,0.9-2,0.9c-0.9,0-1.6-0.3-2-0.9s-0.7-1.5-0.7-2.7 v-1.4c0-1.3,0.2-2.2,0.7-2.8s1.1-0.9,2-0.9c0.9,0,1.6,0.3,2,0.9s0.7,1.5,0.7,2.7V65.5z M25.2,64c0-0.9-0.1-1.6-0.4-2 s-0.7-0.6-1.2-0.6c-0.6,0-1,0.2-1.2,0.6S22,63.1,22,63.9v1.7c0,0.9,0.1,1.6,0.4,2s0.7,0.7,1.2,0.7c0.5,0,0.9-0.2,1.2-0.6 s0.4-1.1,0.4-2V64z" class="st2"/><path id="XMLID_687_" d="M7.9,120.7l0.4-4.3h4.4v1H9.3L9,119.8c0.4-0.2,0.9-0.4,1.4-0.4c0.8,0,1.4,0.3,1.9,0.8 s0.7,1.2,0.7,2.1c0,0.9-0.2,1.6-0.7,2.1s-1.1,0.8-2,0.8c-0.8,0-1.4-0.2-1.8-0.6s-0.7-1-0.8-1.7h1c0.1,0.5,0.2,0.9,0.5,1.1 s0.7,0.4,1.1,0.4c0.5,0,0.9-0.2,1.2-0.5s0.4-0.8,0.4-1.4c0-0.6-0.2-1-0.5-1.4s-0.7-0.5-1.2-0.5c-0.5,0-0.8,0.1-1.1,0.3l-0.3,0.2 L7.9,120.7z" class="st2"/><path id="XMLID_689_" d="M19.5,121.3c0,1.3-0.2,2.2-0.7,2.8s-1.1,0.9-2,0.9c-0.9,0-1.6-0.3-2-0.9s-0.7-1.5-0.7-2.7 V120c0-1.3,0.2-2.2,0.7-2.8s1.1-0.9,2-0.9c0.9,0,1.6,0.3,2,0.9s0.7,1.5,0.7,2.7V121.3z M18.5,119.8c0-0.9-0.1-1.6-0.4-2 s-0.7-0.6-1.2-0.6c-0.6,0-1,0.2-1.2,0.6s-0.4,1.1-0.4,1.9v1.7c0,0.9,0.1,1.6,0.4,2s0.7,0.7,1.2,0.7c0.5,0,0.9-0.2,1.2-0.6 s0.4-1.1,0.4-2V119.8z" class="st2"/><path id="XMLID_692_" d="M26.3,121.3c0,1.3-0.2,2.2-0.7,2.8s-1.1,0.9-2,0.9c-0.9,0-1.6-0.3-2-0.9s-0.7-1.5-0.7-2.7 V120c0-1.3,0.2-2.2,0.7-2.8s1.1-0.9,2-0.9c0.9,0,1.6,0.3,2,0.9s0.7,1.5,0.7,2.7V121.3z M25.2,119.8c0-0.9-0.1-1.6-0.4-2 s-0.7-0.6-1.2-0.6c-0.6,0-1,0.2-1.2,0.6s-0.4,1.1-0.4,1.9v1.7c0,0.9,0.1,1.6,0.4,2s0.7,0.7,1.2,0.7c0.5,0,0.9-0.2,1.2-0.6 s0.4-1.1,0.4-2V119.8z" class="st2"/><path id="XMLID_695_" d="M13,180.8H7.4V180l3-3.3c0.4-0.5,0.7-0.9,0.9-1.2s0.2-0.6,0.2-1c0-0.4-0.1-0.8-0.4-1.1 s-0.6-0.4-1.1-0.4c-0.5,0-1,0.2-1.3,0.5s-0.4,0.7-0.4,1.3H7.3c0-0.8,0.3-1.4,0.8-1.9s1.2-0.7,2-0.7c0.8,0,1.4,0.2,1.9,0.6 s0.7,1,0.7,1.7c0,0.8-0.5,1.8-1.6,3l-2.3,2.5H13V180.8z" class="st2"/><path id="XMLID_697_" d="M14.7,176.5l0.4-4.3h4.4v1H16l-0.3,2.3c0.4-0.2,0.9-0.4,1.4-0.4c0.8,0,1.4,0.3,1.9,0.8 s0.7,1.2,0.7,2.1c0,0.9-0.2,1.6-0.7,2.1s-1.1,0.8-2,0.8c-0.8,0-1.4-0.2-1.8-0.6s-0.7-1-0.8-1.7h1c0.1,0.5,0.2,0.9,0.5,1.1 s0.7,0.4,1.1,0.4c0.5,0,0.9-0.2,1.2-0.5s0.4-0.8,0.4-1.4c0-0.6-0.2-1-0.5-1.4s-0.7-0.5-1.2-0.5c-0.5,0-0.8,0.1-1.1,0.3l-0.3,0.2 L14.7,176.5z" class="st2"/><path id="XMLID_699_" d="M26.3,177.1c0,1.3-0.2,2.2-0.7,2.8s-1.1,0.9-2,0.9c-0.9,0-1.6-0.3-2-0.9s-0.7-1.5-0.7-2.7 v-1.4c0-1.3,0.2-2.2,0.7-2.8s1.1-0.9,2-0.9c0.9,0,1.6,0.3,2,0.9s0.7,1.5,0.7,2.7V177.1z M25.2,175.6c0-0.9-0.1-1.6-0.4-2 s-0.7-0.6-1.2-0.6c-0.6,0-1,0.2-1.2,0.6s-0.4,1.1-0.4,1.9v1.7c0,0.9,0.1,1.6,0.4,2s0.7,0.7,1.2,0.7c0.5,0,0.9-0.2,1.2-0.6 s0.4-1.1,0.4-2V175.6z" class="st2"/><path id="XMLID_702_" d="M26.3,232.9c0,1.3-0.2,2.2-0.7,2.8s-1.1,0.9-2,0.9c-0.9,0-1.6-0.3-2-0.9s-0.7-1.5-0.7-2.7 v-1.4c0-1.3,0.2-2.2,0.7-2.8s1.1-0.9,2-0.9c0.9,0,1.6,0.3,2,0.9s0.7,1.5,0.7,2.7V232.9z M25.2,231.5c0-0.9-0.1-1.6-0.4-2 s-0.7-0.6-1.2-0.6c-0.6,0-1,0.2-1.2,0.6s-0.4,1.1-0.4,1.9v1.7c0,0.9,0.1,1.6,0.4,2s0.7,0.7,1.2,0.7c0.5,0,0.9-0.2,1.2-0.6 s0.4-1.1,0.4-2V231.5z" class="st2"/></g><g id="XMLID_11_"><path id="XMLID_25_" d="M48.3,263.1h-1.1v-7.2l-2.2,0.8v-1l3.1-1.2h0.2V263.1z" class="st2"/><path id="XMLID_408_" d="M56.8,259.4c0,1.3-0.2,2.2-0.7,2.8s-1.1,0.9-2,0.9c-0.9,0-1.6-0.3-2-0.9s-0.7-1.5-0.7-2.7 v-1.4c0-1.3,0.2-2.2,0.7-2.8s1.1-0.9,2-0.9c0.9,0,1.6,0.3,2,0.9s0.7,1.5,0.7,2.7V259.4z M55.7,257.9c0-0.9-0.1-1.6-0.4-2 s-0.7-0.6-1.2-0.6c-0.6,0-1,0.2-1.2,0.6s-0.4,1.1-0.4,1.9v1.7c0,0.9,0.1,1.6,0.4,2s0.7,0.7,1.2,0.7c0.5,0,0.9-0.2,1.2-0.6 s0.4-1.1,0.4-2V257.9z" class="st2"/><path id="XMLID_411_" d="M60.6,259.9h-2.9V259h2.9V259.9z" class="st2"/><path id="XMLID_413_" d="M67.1,263.1h-5.6v-0.8l3-3.3c0.4-0.5,0.7-0.9,0.9-1.2s0.2-0.6,0.2-1c0-0.4-0.1-0.8-0.4-1.1 s-0.6-0.4-1.1-0.4c-0.5,0-1,0.2-1.3,0.5s-0.4,0.7-0.4,1.3h-1.1c0-0.8,0.3-1.4,0.8-1.9s1.2-0.7,2-0.7c0.8,0,1.4,0.2,1.9,0.6 s0.7,1,0.7,1.7c0,0.8-0.5,1.8-1.6,3l-2.3,2.5h4.3V263.1z" class="st2"/><path id="XMLID_415_" d="M73.6,259.4c0,1.3-0.2,2.2-0.7,2.8s-1.1,0.9-2,0.9c-0.9,0-1.6-0.3-2-0.9s-0.7-1.5-0.7-2.7 v-1.4c0-1.3,0.2-2.2,0.7-2.8s1.1-0.9,2-0.9c0.9,0,1.6,0.3,2,0.9s0.7,1.5,0.7,2.7V259.4z M72.5,257.9c0-0.9-0.1-1.6-0.4-2 s-0.7-0.6-1.2-0.6c-0.6,0-1,0.2-1.2,0.6s-0.4,1.1-0.4,1.9v1.7c0,0.9,0.1,1.6,0.4,2s0.7,0.7,1.2,0.7c0.5,0,0.9-0.2,1.2-0.6 s0.4-1.1,0.4-2V257.9z" class="st2"/><path id="XMLID_418_" d="M78.5,263.1h-1.1v-7.2l-2.2,0.8v-1l3.1-1.2h0.2V263.1z" class="st2"/><path id="XMLID_420_" d="M86,254.5v0.9h-0.2c-0.8,0-1.5,0.3-2,0.8s-0.8,1.2-0.9,2c0.4-0.5,1.1-0.8,1.8-0.8 c0.7,0,1.3,0.3,1.8,0.8s0.7,1.2,0.7,2c0,0.9-0.2,1.6-0.7,2.1s-1.1,0.8-1.9,0.8c-0.8,0-1.5-0.3-2-0.9s-0.8-1.4-0.8-2.4v-0.4 c0-1.6,0.3-2.8,1-3.6s1.7-1.3,3-1.3H86z M84.5,258.4c-0.4,0-0.7,0.1-1,0.3s-0.5,0.5-0.7,0.8v0.4c0,0.7,0.2,1.3,0.5,1.7 s0.7,0.6,1.2,0.6c0.5,0,0.9-0.2,1.2-0.5s0.4-0.8,0.4-1.4c0-0.6-0.1-1.1-0.4-1.4S85,258.4,84.5,258.4z" class="st2"/><path id="XMLID_423_" d="M120.3,263.1h-1.1v-7.2l-2.2,0.8v-1l3.1-1.2h0.2V263.1z" class="st2"/><path id="XMLID_425_" d="M127,263.1h-1.1v-7.2l-2.2,0.8v-1l3.1-1.2h0.2V263.1z" class="st2"/><path id="XMLID_427_" d="M132.6,259.9h-2.9V259h2.9V259.9z" class="st2"/><path id="XMLID_429_" d="M139.1,263.1h-5.6v-0.8l3-3.3c0.4-0.5,0.7-0.9,0.9-1.2s0.2-0.6,0.2-1c0-0.4-0.1-0.8-0.4-1.1 s-0.6-0.4-1.1-0.4c-0.5,0-1,0.2-1.3,0.5s-0.4,0.7-0.4,1.3h-1.1c0-0.8,0.3-1.4,0.8-1.9s1.2-0.7,2-0.7c0.8,0,1.4,0.2,1.9,0.6 s0.7,1,0.7,1.7c0,0.8-0.5,1.8-1.6,3l-2.3,2.5h4.3V263.1z" class="st2"/><path id="XMLID_431_" d="M145.6,259.4c0,1.3-0.2,2.2-0.7,2.8s-1.1,0.9-2,0.9c-0.9,0-1.6-0.3-2-0.9s-0.7-1.5-0.7-2.7 v-1.4c0-1.3,0.2-2.2,0.7-2.8s1.1-0.9,2-0.9c0.9,0,1.6,0.3,2,0.9s0.7,1.5,0.7,2.7V259.4z M144.5,257.9c0-0.9-0.1-1.6-0.4-2 s-0.7-0.6-1.2-0.6c-0.6,0-1,0.2-1.2,0.6s-0.4,1.1-0.4,1.9v1.7c0,0.9,0.1,1.6,0.4,2s0.7,0.7,1.2,0.7c0.5,0,0.9-0.2,1.2-0.6 s0.4-1.1,0.4-2V257.9z" class="st2"/><path id="XMLID_434_" d="M150.5,263.1h-1.1v-7.2l-2.2,0.8v-1l3.1-1.2h0.2V263.1z" class="st2"/><path id="XMLID_436_" d="M158,254.5v0.9h-0.2c-0.8,0-1.5,0.3-2,0.8s-0.8,1.2-0.9,2c0.4-0.5,1.1-0.8,1.8-0.8 c0.7,0,1.3,0.3,1.8,0.8s0.7,1.2,0.7,2c0,0.9-0.2,1.6-0.7,2.1s-1.1,0.8-1.9,0.8c-0.8,0-1.5-0.3-2-0.9s-0.8-1.4-0.8-2.4v-0.4 c0-1.6,0.3-2.8,1-3.6s1.7-1.3,3-1.3H158z M156.5,258.4c-0.4,0-0.7,0.1-1,0.3s-0.5,0.5-0.7,0.8v0.4c0,0.7,0.2,1.3,0.5,1.7 s0.7,0.6,1.2,0.6c0.5,0,0.9-0.2,1.2-0.5s0.4-0.8,0.4-1.4c0-0.6-0.1-1.1-0.4-1.4S157,258.4,156.5,258.4z" class="st2"/><path id="XMLID_439_" d="M192.3,263.1h-1.1v-7.2l-2.2,0.8v-1l3.1-1.2h0.2V263.1z" class="st2"/><path id="XMLID_441_" d="M201,263.1h-5.6v-0.8l3-3.3c0.4-0.5,0.7-0.9,0.9-1.2s0.2-0.6,0.2-1c0-0.4-0.1-0.8-0.4-1.1 s-0.6-0.4-1.1-0.4c-0.5,0-1,0.2-1.3,0.5s-0.4,0.7-0.4,1.3h-1.1c0-0.8,0.3-1.4,0.8-1.9s1.2-0.7,2-0.7c0.8,0,1.4,0.2,1.9,0.6 s0.7,1,0.7,1.7c0,0.8-0.5,1.8-1.6,3l-2.3,2.5h4.3V263.1z" class="st2"/><path id="XMLID_443_" d="M204.6,259.9h-2.9V259h2.9V259.9z" class="st2"/><path id="XMLID_445_" d="M211.1,263.1h-5.6v-0.8l3-3.3c0.4-0.5,0.7-0.9,0.9-1.2s0.2-0.6,0.2-1c0-0.4-0.1-0.8-0.4-1.1 s-0.6-0.4-1.1-0.4c-0.5,0-1,0.2-1.3,0.5s-0.4,0.7-0.4,1.3h-1.1c0-0.8,0.3-1.4,0.8-1.9s1.2-0.7,2-0.7c0.8,0,1.4,0.2,1.9,0.6 s0.7,1,0.7,1.7c0,0.8-0.5,1.8-1.6,3l-2.3,2.5h4.3V263.1z" class="st2"/><path id="XMLID_447_" d="M217.6,259.4c0,1.3-0.2,2.2-0.7,2.8s-1.1,0.9-2,0.9c-0.9,0-1.6-0.3-2-0.9s-0.7-1.5-0.7-2.7 v-1.4c0-1.3,0.2-2.2,0.7-2.8s1.1-0.9,2-0.9c0.9,0,1.6,0.3,2,0.9s0.7,1.5,0.7,2.7V259.4z M216.5,257.9c0-0.9-0.1-1.6-0.4-2 s-0.7-0.6-1.2-0.6c-0.6,0-1,0.2-1.2,0.6s-0.4,1.1-0.4,1.9v1.7c0,0.9,0.1,1.6,0.4,2s0.7,0.7,1.2,0.7c0.5,0,0.9-0.2,1.2-0.6 s0.4-1.1,0.4-2V257.9z" class="st2"/><path id="XMLID_450_" d="M222.5,263.1h-1.1v-7.2l-2.2,0.8v-1l3.1-1.2h0.2V263.1z" class="st2"/><path id="XMLID_452_" d="M230,254.5v0.9h-0.2c-0.8,0-1.5,0.3-2,0.8s-0.8,1.2-0.9,2c0.4-0.5,1.1-0.8,1.8-0.8 c0.7,0,1.3,0.3,1.8,0.8s0.7,1.2,0.7,2c0,0.9-0.2,1.6-0.7,2.1s-1.1,0.8-1.9,0.8c-0.8,0-1.5-0.3-2-0.9s-0.8-1.4-0.8-2.4v-0.4 c0-1.6,0.3-2.8,1-3.6s1.7-1.3,3-1.3H230z M228.5,258.4c-0.4,0-0.7,0.1-1,0.3s-0.5,0.5-0.7,0.8v0.4c0,0.7,0.2,1.3,0.5,1.7 s0.7,0.6,1.2,0.6c0.5,0,0.9-0.2,1.2-0.5s0.4-0.8,0.4-1.4c0-0.6-0.1-1.1-0.4-1.4S229,258.4,228.5,258.4z" class="st2"/><path id="XMLID_455_" d="M266.1,259.4c0,1.3-0.2,2.2-0.7,2.8s-1.1,0.9-2,0.9c-0.9,0-1.6-0.3-2-0.9s-0.7-1.5-0.7-2.7 v-1.4c0-1.3,0.2-2.2,0.7-2.8s1.1-0.9,2-0.9c0.9,0,1.6,0.3,2,0.9s0.7,1.5,0.7,2.7V259.4z M265,257.9c0-0.9-0.1-1.6-0.4-2 s-0.7-0.6-1.2-0.6c-0.6,0-1,0.2-1.2,0.6s-0.4,1.1-0.4,1.9v1.7c0,0.9,0.1,1.6,0.4,2s0.7,0.7,1.2,0.7c0.5,0,0.9-0.2,1.2-0.6 s0.4-1.1,0.4-2V257.9z" class="st2"/><path id="XMLID_458_" d="M271,263.1h-1.1v-7.2l-2.2,0.8v-1l3.1-1.2h0.2V263.1z" class="st2"/><path id="XMLID_460_" d="M276.6,259.9h-2.9V259h2.9V259.9z" class="st2"/><path id="XMLID_462_" d="M283.1,263.1h-5.6v-0.8l3-3.3c0.4-0.5,0.7-0.9,0.9-1.2s0.2-0.6,0.2-1c0-0.4-0.1-0.8-0.4-1.1 s-0.6-0.4-1.1-0.4c-0.5,0-1,0.2-1.3,0.5s-0.4,0.7-0.4,1.3h-1.1c0-0.8,0.3-1.4,0.8-1.9s1.2-0.7,2-0.7c0.8,0,1.4,0.2,1.9,0.6 s0.7,1,0.7,1.7c0,0.8-0.5,1.8-1.6,3l-2.3,2.5h4.3V263.1z" class="st2"/><path id="XMLID_464_" d="M289.6,259.4c0,1.3-0.2,2.2-0.7,2.8s-1.1,0.9-2,0.9c-0.9,0-1.6-0.3-2-0.9s-0.7-1.5-0.7-2.7 v-1.4c0-1.3,0.2-2.2,0.7-2.8s1.1-0.9,2-0.9c0.9,0,1.6,0.3,2,0.9s0.7,1.5,0.7,2.7V259.4z M288.5,257.9c0-0.9-0.1-1.6-0.4-2 s-0.7-0.6-1.2-0.6c-0.6,0-1,0.2-1.2,0.6s-0.4,1.1-0.4,1.9v1.7c0,0.9,0.1,1.6,0.4,2s0.7,0.7,1.2,0.7c0.5,0,0.9-0.2,1.2-0.6 s0.4-1.1,0.4-2V257.9z" class="st2"/><path id="XMLID_467_" d="M294.5,263.1h-1.1v-7.2l-2.2,0.8v-1l3.1-1.2h0.2V263.1z" class="st2"/><path id="XMLID_469_" d="M303.2,255.1l-3.5,7.9h-1.1l3.5-7.6h-4.6v-0.9h5.8V255.1z" class="st2"/><path id="XMLID_471_" d="M338.1,259.4c0,1.3-0.2,2.2-0.7,2.8s-1.1,0.9-2,0.9c-0.9,0-1.6-0.3-2-0.9s-0.7-1.5-0.7-2.7 v-1.4c0-1.3,0.2-2.2,0.7-2.8s1.1-0.9,2-0.9c0.9,0,1.6,0.3,2,0.9s0.7,1.5,0.7,2.7V259.4z M337,257.9c0-0.9-0.1-1.6-0.4-2 s-0.7-0.6-1.2-0.6c-0.6,0-1,0.2-1.2,0.6s-0.4,1.1-0.4,1.9v1.7c0,0.9,0.1,1.6,0.4,2s0.7,0.7,1.2,0.7c0.5,0,0.9-0.2,1.2-0.6 s0.4-1.1,0.4-2V257.9z" class="st2"/><path id="XMLID_474_" d="M345,263.1h-5.6v-0.8l3-3.3c0.4-0.5,0.7-0.9,0.9-1.2s0.2-0.6,0.2-1c0-0.4-0.1-0.8-0.4-1.1 s-0.6-0.4-1.1-0.4c-0.5,0-1,0.2-1.3,0.5s-0.4,0.7-0.4,1.3h-1.1c0-0.8,0.3-1.4,0.8-1.9s1.2-0.7,2-0.7c0.8,0,1.4,0.2,1.9,0.6 s0.7,1,0.7,1.7c0,0.8-0.5,1.8-1.6,3l-2.3,2.5h4.3V263.1z" class="st2"/><path id="XMLID_476_" d="M348.6,259.9h-2.9V259h2.9V259.9z" class="st2"/><path id="XMLID_478_" d="M355.1,263.1h-5.6v-0.8l3-3.3c0.4-0.5,0.7-0.9,0.9-1.2s0.2-0.6,0.2-1c0-0.4-0.1-0.8-0.4-1.1 s-0.6-0.4-1.1-0.4c-0.5,0-1,0.2-1.3,0.5s-0.4,0.7-0.4,1.3h-1.1c0-0.8,0.3-1.4,0.8-1.9s1.2-0.7,2-0.7c0.8,0,1.4,0.2,1.9,0.6 s0.7,1,0.7,1.7c0,0.8-0.5,1.8-1.6,3l-2.3,2.5h4.3V263.1z" class="st2"/><path id="XMLID_480_" d="M361.6,259.4c0,1.3-0.2,2.2-0.7,2.8s-1.1,0.9-2,0.9c-0.9,0-1.6-0.3-2-0.9s-0.7-1.5-0.7-2.7 v-1.4c0-1.3,0.2-2.2,0.7-2.8s1.1-0.9,2-0.9c0.9,0,1.6,0.3,2,0.9s0.7,1.5,0.7,2.7V259.4z M360.5,257.9c0-0.9-0.1-1.6-0.4-2 s-0.7-0.6-1.2-0.6c-0.6,0-1,0.2-1.2,0.6s-0.4,1.1-0.4,1.9v1.7c0,0.9,0.1,1.6,0.4,2s0.7,0.7,1.2,0.7c0.5,0,0.9-0.2,1.2-0.6 s0.4-1.1,0.4-2V257.9z" class="st2"/><path id="XMLID_483_" d="M366.5,263.1h-1.1v-7.2l-2.2,0.8v-1l3.1-1.2h0.2V263.1z" class="st2"/><path id="XMLID_485_" d="M375.2,255.1l-3.5,7.9h-1.1l3.5-7.6h-4.6v-0.9h5.8V255.1z" class="st2"/><path id="XMLID_487_" d="M410.1,259.4c0,1.3-0.2,2.2-0.7,2.8s-1.1,0.9-2,0.9c-0.9,0-1.6-0.3-2-0.9s-0.7-1.5-0.7-2.7 v-1.4c0-1.3,0.2-2.2,0.7-2.8s1.1-0.9,2-0.9c0.9,0,1.6,0.3,2,0.9s0.7,1.5,0.7,2.7V259.4z M409,257.9c0-0.9-0.1-1.6-0.4-2 s-0.7-0.6-1.2-0.6c-0.6,0-1,0.2-1.2,0.6s-0.4,1.1-0.4,1.9v1.7c0,0.9,0.1,1.6,0.4,2s0.7,0.7,1.2,0.7c0.5,0,0.9-0.2,1.2-0.6 s0.4-1.1,0.4-2V257.9z" class="st2"/><path id="XMLID_490_" d="M413,258.3h0.8c0.5,0,0.9-0.1,1.2-0.4s0.4-0.6,0.4-1.1c0-1-0.5-1.5-1.5-1.5 c-0.5,0-0.8,0.1-1.1,0.4s-0.4,0.6-0.4,1.1h-1.1c0-0.7,0.2-1.2,0.7-1.7s1.1-0.7,1.9-0.7c0.8,0,1.4,0.2,1.9,0.6s0.7,1,0.7,1.8 c0,0.4-0.1,0.7-0.4,1.1s-0.6,0.6-1,0.8c0.5,0.1,0.8,0.4,1.1,0.7s0.4,0.8,0.4,1.3c0,0.8-0.3,1.4-0.8,1.8s-1.2,0.7-2,0.7 s-1.5-0.2-2-0.7s-0.8-1-0.8-1.7h1.1c0,0.4,0.1,0.8,0.4,1.1s0.7,0.4,1.2,0.4c0.5,0,0.9-0.1,1.2-0.4s0.4-0.7,0.4-1.2 c0-0.5-0.2-0.9-0.5-1.1s-0.7-0.4-1.3-0.4H413V258.3z" class="st2"/><path id="XMLID_492_" d="M420.6,259.9h-2.9V259h2.9V259.9z" class="st2"/><path id="XMLID_494_" d="M427.1,263.1h-5.6v-0.8l3-3.3c0.4-0.5,0.7-0.9,0.9-1.2s0.2-0.6,0.2-1c0-0.4-0.1-0.8-0.4-1.1 s-0.6-0.4-1.1-0.4c-0.5,0-1,0.2-1.3,0.5s-0.4,0.7-0.4,1.3h-1.1c0-0.8,0.3-1.4,0.8-1.9s1.2-0.7,2-0.7c0.8,0,1.4,0.2,1.9,0.6 s0.7,1,0.7,1.7c0,0.8-0.5,1.8-1.6,3l-2.3,2.5h4.3V263.1z" class="st2"/><path id="XMLID_496_" d="M433.6,259.4c0,1.3-0.2,2.2-0.7,2.8s-1.1,0.9-2,0.9c-0.9,0-1.6-0.3-2-0.9s-0.7-1.5-0.7-2.7 v-1.4c0-1.3,0.2-2.2,0.7-2.8s1.1-0.9,2-0.9c0.9,0,1.6,0.3,2,0.9s0.7,1.5,0.7,2.7V259.4z M432.5,257.9c0-0.9-0.1-1.6-0.4-2 s-0.7-0.6-1.2-0.6c-0.6,0-1,0.2-1.2,0.6s-0.4,1.1-0.4,1.9v1.7c0,0.9,0.1,1.6,0.4,2s0.7,0.7,1.2,0.7c0.5,0,0.9-0.2,1.2-0.6 s0.4-1.1,0.4-2V257.9z" class="st2"/><path id="XMLID_499_" d="M438.5,263.1h-1.1v-7.2l-2.2,0.8v-1l3.1-1.2h0.2V263.1z" class="st2"/><path id="XMLID_501_" d="M447.2,255.1l-3.5,7.9h-1.1l3.5-7.6h-4.6v-0.9h5.8V255.1z" class="st2"/><path id="XMLID_503_" d="M482.1,259.4c0,1.3-0.2,2.2-0.7,2.8s-1.1,0.9-2,0.9c-0.9,0-1.6-0.3-2-0.9s-0.7-1.5-0.7-2.7 v-1.4c0-1.3,0.2-2.2,0.7-2.8s1.1-0.9,2-0.9c0.9,0,1.6,0.3,2,0.9s0.7,1.5,0.7,2.7V259.4z M481,257.9c0-0.9-0.1-1.6-0.4-2 s-0.7-0.6-1.2-0.6c-0.6,0-1,0.2-1.2,0.6s-0.4,1.1-0.4,1.9v1.7c0,0.9,0.1,1.6,0.4,2s0.7,0.7,1.2,0.7c0.5,0,0.9-0.2,1.2-0.6 s0.4-1.1,0.4-2V257.9z" class="st2"/><path id="XMLID_506_" d="M488,260.2h1.2v0.9H488v2h-1.1v-2H483v-0.6l3.8-5.9h1.2V260.2z M484.3,260.2h2.7V256 l-0.1,0.2L484.3,260.2z" class="st2"/><path id="XMLID_509_" d="M492.6,259.9h-2.9V259h2.9V259.9z" class="st2"/><path id="XMLID_511_" d="M499.1,263.1h-5.6v-0.8l3-3.3c0.4-0.5,0.7-0.9,0.9-1.2s0.2-0.6,0.2-1c0-0.4-0.1-0.8-0.4-1.1 s-0.6-0.4-1.1-0.4c-0.5,0-1,0.2-1.3,0.5s-0.4,0.7-0.4,1.3h-1.1c0-0.8,0.3-1.4,0.8-1.9s1.2-0.7,2-0.7c0.8,0,1.4,0.2,1.9,0.6 s0.7,1,0.7,1.7c0,0.8-0.5,1.8-1.6,3l-2.3,2.5h4.3V263.1z" class="st2"/><path id="XMLID_513_" d="M505.6,259.4c0,1.3-0.2,2.2-0.7,2.8s-1.1,0.9-2,0.9c-0.9,0-1.6-0.3-2-0.9s-0.7-1.5-0.7-2.7 v-1.4c0-1.3,0.2-2.2,0.7-2.8s1.1-0.9,2-0.9c0.9,0,1.6,0.3,2,0.9s0.7,1.5,0.7,2.7V259.4z M504.5,257.9c0-0.9-0.1-1.6-0.4-2 s-0.7-0.6-1.2-0.6c-0.6,0-1,0.2-1.2,0.6s-0.4,1.1-0.4,1.9v1.7c0,0.9,0.1,1.6,0.4,2s0.7,0.7,1.2,0.7c0.5,0,0.9-0.2,1.2-0.6 s0.4-1.1,0.4-2V257.9z" class="st2"/><path id="XMLID_516_" d="M510.5,263.1h-1.1v-7.2l-2.2,0.8v-1l3.1-1.2h0.2V263.1z" class="st2"/><path id="XMLID_518_" d="M519.2,255.1l-3.5,7.9h-1.1l3.5-7.6h-4.6v-0.9h5.8V255.1z" class="st2"/><path id="XMLID_520_" d="M554.1,259.4c0,1.3-0.2,2.2-0.7,2.8s-1.1,0.9-2,0.9c-0.9,0-1.6-0.3-2-0.9s-0.7-1.5-0.7-2.7 v-1.4c0-1.3,0.2-2.2,0.7-2.8s1.1-0.9,2-0.9c0.9,0,1.6,0.3,2,0.9s0.7,1.5,0.7,2.7V259.4z M553,257.9c0-0.9-0.1-1.6-0.4-2 s-0.7-0.6-1.2-0.6c-0.6,0-1,0.2-1.2,0.6s-0.4,1.1-0.4,1.9v1.7c0,0.9,0.1,1.6,0.4,2s0.7,0.7,1.2,0.7c0.5,0,0.9-0.2,1.2-0.6 s0.4-1.1,0.4-2V257.9z" class="st2"/><path id="XMLID_523_" d="M555.9,258.8l0.4-4.3h4.4v1h-3.5l-0.3,2.3c0.4-0.2,0.9-0.4,1.4-0.4c0.8,0,1.4,0.3,1.9,0.8 s0.7,1.2,0.7,2.1c0,0.9-0.2,1.6-0.7,2.1s-1.1,0.8-2,0.8c-0.8,0-1.4-0.2-1.8-0.6s-0.7-1-0.8-1.7h1c0.1,0.5,0.2,0.9,0.5,1.1 s0.7,0.4,1.1,0.4c0.5,0,0.9-0.2,1.2-0.5s0.4-0.8,0.4-1.4c0-0.6-0.2-1-0.5-1.4s-0.7-0.5-1.2-0.5c-0.5,0-0.8,0.1-1.1,0.3l-0.3,0.2 L555.9,258.8z" class="st2"/><path id="XMLID_525_" d="M564.6,259.9h-2.9V259h2.9V259.9z" class="st2"/><path id="XMLID_527_" d="M571.1,263.1h-5.6v-0.8l3-3.3c0.4-0.5,0.7-0.9,0.9-1.2s0.2-0.6,0.2-1c0-0.4-0.1-0.8-0.4-1.1 s-0.6-0.4-1.1-0.4c-0.5,0-1,0.2-1.3,0.5s-0.4,0.7-0.4,1.3h-1.1c0-0.8,0.3-1.4,0.8-1.9s1.2-0.7,2-0.7c0.8,0,1.4,0.2,1.9,0.6 s0.7,1,0.7,1.7c0,0.8-0.5,1.8-1.6,3l-2.3,2.5h4.3V263.1z" class="st2"/><path id="XMLID_529_" d="M577.6,259.4c0,1.3-0.2,2.2-0.7,2.8s-1.1,0.9-2,0.9c-0.9,0-1.6-0.3-2-0.9s-0.7-1.5-0.7-2.7 v-1.4c0-1.3,0.2-2.2,0.7-2.8s1.1-0.9,2-0.9c0.9,0,1.6,0.3,2,0.9s0.7,1.5,0.7,2.7V259.4z M576.5,257.9c0-0.9-0.1-1.6-0.4-2 s-0.7-0.6-1.2-0.6c-0.6,0-1,0.2-1.2,0.6s-0.4,1.1-0.4,1.9v1.7c0,0.9,0.1,1.6,0.4,2s0.7,0.7,1.2,0.7c0.5,0,0.9-0.2,1.2-0.6 s0.4-1.1,0.4-2V257.9z" class="st2"/><path id="XMLID_532_" d="M582.5,263.1h-1.1v-7.2l-2.2,0.8v-1l3.1-1.2h0.2V263.1z" class="st2"/><path id="XMLID_534_" d="M591.2,255.1l-3.5,7.9h-1.1l3.5-7.6h-4.6v-0.9h5.8V255.1z" class="st2"/><path id="XMLID_536_" d="M626.1,259.4c0,1.3-0.2,2.2-0.7,2.8s-1.1,0.9-2,0.9c-0.9,0-1.6-0.3-2-0.9s-0.7-1.5-0.7-2.7 v-1.4c0-1.3,0.2-2.2,0.7-2.8s1.1-0.9,2-0.9c0.9,0,1.6,0.3,2,0.9s0.7,1.5,0.7,2.7V259.4z M625,257.9c0-0.9-0.1-1.6-0.4-2 s-0.7-0.6-1.2-0.6c-0.6,0-1,0.2-1.2,0.6s-0.4,1.1-0.4,1.9v1.7c0,0.9,0.1,1.6,0.4,2s0.7,0.7,1.2,0.7c0.5,0,0.9-0.2,1.2-0.6 s0.4-1.1,0.4-2V257.9z" class="st2"/><path id="XMLID_539_" d="M631.7,254.5v0.9h-0.2c-0.8,0-1.5,0.3-2,0.8s-0.8,1.2-0.9,2c0.4-0.5,1.1-0.8,1.8-0.8 c0.7,0,1.3,0.3,1.8,0.8s0.7,1.2,0.7,2c0,0.9-0.2,1.6-0.7,2.1s-1.1,0.8-1.9,0.8c-0.8,0-1.5-0.3-2-0.9s-0.8-1.4-0.8-2.4v-0.4 c0-1.6,0.3-2.8,1-3.6s1.7-1.3,3-1.3H631.7z M630.3,258.4c-0.4,0-0.7,0.1-1,0.3s-0.5,0.5-0.7,0.8v0.4c0,0.7,0.2,1.3,0.5,1.7 s0.7,0.6,1.2,0.6c0.5,0,0.9-0.2,1.2-0.5s0.4-0.8,0.4-1.4c0-0.6-0.1-1.1-0.4-1.4S630.7,258.4,630.3,258.4z" class="st2"/><path id="XMLID_542_" d="M636.6,259.9h-2.9V259h2.9V259.9z" class="st2"/><path id="XMLID_544_" d="M643.1,263.1h-5.6v-0.8l3-3.3c0.4-0.5,0.7-0.9,0.9-1.2s0.2-0.6,0.2-1c0-0.4-0.1-0.8-0.4-1.1 s-0.6-0.4-1.1-0.4c-0.5,0-1,0.2-1.3,0.5s-0.4,0.7-0.4,1.3h-1.1c0-0.8,0.3-1.4,0.8-1.9s1.2-0.7,2-0.7c0.8,0,1.4,0.2,1.9,0.6 s0.7,1,0.7,1.7c0,0.8-0.5,1.8-1.6,3l-2.3,2.5h4.3V263.1z" class="st2"/><path id="XMLID_546_" d="M649.6,259.4c0,1.3-0.2,2.2-0.7,2.8s-1.1,0.9-2,0.9c-0.9,0-1.6-0.3-2-0.9s-0.7-1.5-0.7-2.7 v-1.4c0-1.3,0.2-2.2,0.7-2.8s1.1-0.9,2-0.9c0.9,0,1.6,0.3,2,0.9s0.7,1.5,0.7,2.7V259.4z M648.5,257.9c0-0.9-0.1-1.6-0.4-2 s-0.7-0.6-1.2-0.6c-0.6,0-1,0.2-1.2,0.6s-0.4,1.1-0.4,1.9v1.7c0,0.9,0.1,1.6,0.4,2s0.7,0.7,1.2,0.7c0.5,0,0.9-0.2,1.2-0.6 s0.4-1.1,0.4-2V257.9z" class="st2"/><path id="XMLID_549_" d="M654.5,263.1h-1.1v-7.2l-2.2,0.8v-1l3.1-1.2h0.2V263.1z" class="st2"/><path id="XMLID_551_" d="M663.2,255.1l-3.5,7.9h-1.1l3.5-7.6h-4.6v-0.9h5.8V255.1z" class="st2"/><path id="XMLID_553_" d="M698.1,259.4c0,1.3-0.2,2.2-0.7,2.8s-1.1,0.9-2,0.9c-0.9,0-1.6-0.3-2-0.9s-0.7-1.5-0.7-2.7 v-1.4c0-1.3,0.2-2.2,0.7-2.8s1.1-0.9,2-0.9c0.9,0,1.6,0.3,2,0.9s0.7,1.5,0.7,2.7V259.4z M697,257.9c0-0.9-0.1-1.6-0.4-2 s-0.7-0.6-1.2-0.6c-0.6,0-1,0.2-1.2,0.6s-0.4,1.1-0.4,1.9v1.7c0,0.9,0.1,1.6,0.4,2s0.7,0.7,1.2,0.7c0.5,0,0.9-0.2,1.2-0.6 s0.4-1.1,0.4-2V257.9z" class="st2"/><path id="XMLID_556_" d="M705,255.1l-3.5,7.9h-1.1l3.5-7.6h-4.6v-0.9h5.8V255.1z" class="st2"/><path id="XMLID_558_" d="M708.6,259.9h-2.9V259h2.9V259.9z" class="st2"/><path id="XMLID_560_" d="M715.1,263.1h-5.6v-0.8l3-3.3c0.4-0.5,0.7-0.9,0.9-1.2s0.2-0.6,0.2-1c0-0.4-0.1-0.8-0.4-1.1 s-0.6-0.4-1.1-0.4c-0.5,0-1,0.2-1.3,0.5s-0.4,0.7-0.4,1.3h-1.1c0-0.8,0.3-1.4,0.8-1.9s1.2-0.7,2-0.7c0.8,0,1.4,0.2,1.9,0.6 s0.7,1,0.7,1.7c0,0.8-0.5,1.8-1.6,3l-2.3,2.5h4.3V263.1z" class="st2"/><path id="XMLID_562_" d="M721.6,259.4c0,1.3-0.2,2.2-0.7,2.8s-1.1,0.9-2,0.9c-0.9,0-1.6-0.3-2-0.9s-0.7-1.5-0.7-2.7 v-1.4c0-1.3,0.2-2.2,0.7-2.8s1.1-0.9,2-0.9c0.9,0,1.6,0.3,2,0.9s0.7,1.5,0.7,2.7V259.4z M720.5,257.9c0-0.9-0.1-1.6-0.4-2 s-0.7-0.6-1.2-0.6c-0.6,0-1,0.2-1.2,0.6s-0.4,1.1-0.4,1.9v1.7c0,0.9,0.1,1.6,0.4,2s0.7,0.7,1.2,0.7c0.5,0,0.9-0.2,1.2-0.6 s0.4-1.1,0.4-2V257.9z" class="st2"/><path id="XMLID_565_" d="M726.5,263.1h-1.1v-7.2l-2.2,0.8v-1l3.1-1.2h0.2V263.1z" class="st2"/><path id="XMLID_567_" d="M735.2,255.1l-3.5,7.9h-1.1l3.5-7.6h-4.6v-0.9h5.8V255.1z" class="st2"/><path id="XMLID_569_" d="M770.1,259.4c0,1.3-0.2,2.2-0.7,2.8s-1.1,0.9-2,0.9c-0.9,0-1.6-0.3-2-0.9s-0.7-1.5-0.7-2.7 v-1.4c0-1.3,0.2-2.2,0.7-2.8s1.1-0.9,2-0.9c0.9,0,1.6,0.3,2,0.9s0.7,1.5,0.7,2.7V259.4z M769,257.9c0-0.9-0.1-1.6-0.4-2 s-0.7-0.6-1.2-0.6c-0.6,0-1,0.2-1.2,0.6s-0.4,1.1-0.4,1.9v1.7c0,0.9,0.1,1.6,0.4,2s0.7,0.7,1.2,0.7c0.5,0,0.9-0.2,1.2-0.6 s0.4-1.1,0.4-2V257.9z" class="st2"/><path id="XMLID_572_" d="M776.6,256.8c0,0.4-0.1,0.8-0.3,1.1s-0.5,0.6-0.9,0.8c0.4,0.2,0.8,0.5,1.1,0.8 s0.4,0.8,0.4,1.2c0,0.7-0.2,1.3-0.7,1.8s-1.2,0.7-2,0.7c-0.8,0-1.5-0.2-2-0.7s-0.7-1-0.7-1.8c0-0.5,0.1-0.9,0.4-1.2s0.6-0.7,1-0.8 c-0.4-0.2-0.7-0.4-0.9-0.8s-0.3-0.7-0.3-1.1c0-0.7,0.2-1.3,0.7-1.7s1.1-0.6,1.8-0.6c0.8,0,1.4,0.2,1.8,0.6S776.6,256,776.6,256.8z M775.7,260.7c0-0.5-0.2-0.9-0.5-1.2s-0.7-0.5-1.2-0.5s-0.9,0.1-1.2,0.4s-0.4,0.7-0.4,1.2s0.1,0.9,0.4,1.1s0.7,0.4,1.2,0.4 c0.5,0,0.9-0.1,1.2-0.4S775.7,261.2,775.7,260.7z M774.1,255.3c-0.4,0-0.8,0.1-1,0.4s-0.4,0.6-0.4,1.1c0,0.4,0.1,0.8,0.4,1.1 s0.6,0.4,1,0.4s0.8-0.1,1-0.4s0.4-0.6,0.4-1.1s-0.1-0.8-0.4-1.1S774.5,255.3,774.1,255.3z" class="st2"/><path id="XMLID_576_" d="M780.6,259.9h-2.9V259h2.9V259.9z" class="st2"/><path id="XMLID_578_" d="M787.1,263.1h-5.6v-0.8l3-3.3c0.4-0.5,0.7-0.9,0.9-1.2s0.2-0.6,0.2-1c0-0.4-0.1-0.8-0.4-1.1 s-0.6-0.4-1.1-0.4c-0.5,0-1,0.2-1.3,0.5s-0.4,0.7-0.4,1.3h-1.1c0-0.8,0.3-1.4,0.8-1.9s1.2-0.7,2-0.7c0.8,0,1.4,0.2,1.9,0.6 s0.7,1,0.7,1.7c0,0.8-0.5,1.8-1.6,3l-2.3,2.5h4.3V263.1z" class="st2"/><path id="XMLID_580_" d="M793.6,259.4c0,1.3-0.2,2.2-0.7,2.8s-1.1,0.9-2,0.9c-0.9,0-1.6-0.3-2-0.9s-0.7-1.5-0.7-2.7 v-1.4c0-1.3,0.2-2.2,0.7-2.8s1.1-0.9,2-0.9c0.9,0,1.6,0.3,2,0.9s0.7,1.5,0.7,2.7V259.4z M792.5,257.9c0-0.9-0.1-1.6-0.4-2 s-0.7-0.6-1.2-0.6c-0.6,0-1,0.2-1.2,0.6s-0.4,1.1-0.4,1.9v1.7c0,0.9,0.1,1.6,0.4,2s0.7,0.7,1.2,0.7c0.5,0,0.9-0.2,1.2-0.6 s0.4-1.1,0.4-2V257.9z" class="st2"/><path id="XMLID_583_" d="M798.5,263.1h-1.1v-7.2l-2.2,0.8v-1l3.1-1.2h0.2V263.1z" class="st2"/><path id="XMLID_585_" d="M807.2,255.1l-3.5,7.9h-1.1l3.5-7.6h-4.6v-0.9h5.8V255.1z" class="st2"/><path id="XMLID_587_" d="M842.1,259.4c0,1.3-0.2,2.2-0.7,2.8s-1.1,0.9-2,0.9c-0.9,0-1.6-0.3-2-0.9s-0.7-1.5-0.7-2.7 v-1.4c0-1.3,0.2-2.2,0.7-2.8s1.1-0.9,2-0.9c0.9,0,1.6,0.3,2,0.9s0.7,1.5,0.7,2.7V259.4z M841,257.9c0-0.9-0.1-1.6-0.4-2 s-0.7-0.6-1.2-0.6c-0.6,0-1,0.2-1.2,0.6s-0.4,1.1-0.4,1.9v1.7c0,0.9,0.1,1.6,0.4,2s0.7,0.7,1.2,0.7c0.5,0,0.9-0.2,1.2-0.6 s0.4-1.1,0.4-2V257.9z" class="st2"/><path id="XMLID_590_" d="M847.6,259.3c-0.2,0.3-0.5,0.5-0.8,0.7s-0.7,0.2-1,0.2c-0.5,0-0.9-0.1-1.3-0.4 s-0.6-0.6-0.8-1s-0.3-0.9-0.3-1.5c0-0.6,0.1-1.1,0.3-1.5s0.5-0.8,0.9-1s0.9-0.4,1.4-0.4c0.8,0,1.5,0.3,2,0.9s0.7,1.5,0.7,2.6v0.3 c0,1.7-0.3,2.9-1,3.6s-1.6,1.2-3,1.2h-0.2v-0.9h0.2c0.9,0,1.6-0.2,2.1-0.7C847.3,261,847.6,260.3,847.6,259.3z M845.9,259.3 c0.4,0,0.7-0.1,1-0.3s0.5-0.5,0.7-0.8v-0.4c0-0.7-0.2-1.3-0.5-1.7s-0.7-0.7-1.2-0.7c-0.5,0-0.9,0.2-1.1,0.5s-0.4,0.8-0.4,1.4 c0,0.6,0.1,1.1,0.4,1.4S845.5,259.3,845.9,259.3z" class="st2"/><path id="XMLID_593_" d="M852.6,259.9h-2.9V259h2.9V259.9z" class="st2"/><path id="XMLID_595_" d="M859.1,263.1h-5.6v-0.8l3-3.3c0.4-0.5,0.7-0.9,0.9-1.2s0.2-0.6,0.2-1c0-0.4-0.1-0.8-0.4-1.1 s-0.6-0.4-1.1-0.4c-0.5,0-1,0.2-1.3,0.5s-0.4,0.7-0.4,1.3h-1.1c0-0.8,0.3-1.4,0.8-1.9s1.2-0.7,2-0.7c0.8,0,1.4,0.2,1.9,0.6 s0.7,1,0.7,1.7c0,0.8-0.5,1.8-1.6,3l-2.3,2.5h4.3V263.1z" class="st2"/><path id="XMLID_597_" d="M865.6,259.4c0,1.3-0.2,2.2-0.7,2.8s-1.1,0.9-2,0.9c-0.9,0-1.6-0.3-2-0.9s-0.7-1.5-0.7-2.7 v-1.4c0-1.3,0.2-2.2,0.7-2.8s1.1-0.9,2-0.9c0.9,0,1.6,0.3,2,0.9s0.7,1.5,0.7,2.7V259.4z M864.5,257.9c0-0.9-0.1-1.6-0.4-2 s-0.7-0.6-1.2-0.6c-0.6,0-1,0.2-1.2,0.6s-0.4,1.1-0.4,1.9v1.7c0,0.9,0.1,1.6,0.4,2s0.7,0.7,1.2,0.7c0.5,0,0.9-0.2,1.2-0.6 s0.4-1.1,0.4-2V257.9z" class="st2"/><path id="XMLID_600_" d="M870.5,263.1h-1.1v-7.2l-2.2,0.8v-1l3.1-1.2h0.2V263.1z" class="st2"/><path id="XMLID_602_" d="M879.2,255.1l-3.5,7.9h-1.1l3.5-7.6h-4.6v-0.9h5.8V255.1z" class="st2"/><path id="XMLID_604_" d="M912.3,263.1h-1.1v-7.2l-2.2,0.8v-1l3.1-1.2h0.2V263.1z" class="st2"/><path id="XMLID_606_" d="M920.8,259.4c0,1.3-0.2,2.2-0.7,2.8s-1.1,0.9-2,0.9c-0.9,0-1.6-0.3-2-0.9s-0.7-1.5-0.7-2.7 v-1.4c0-1.3,0.2-2.2,0.7-2.8s1.1-0.9,2-0.9c0.9,0,1.6,0.3,2,0.9s0.7,1.5,0.7,2.7V259.4z M919.7,257.9c0-0.9-0.1-1.6-0.4-2 s-0.7-0.6-1.2-0.6c-0.6,0-1,0.2-1.2,0.6s-0.4,1.1-0.4,1.9v1.7c0,0.9,0.1,1.6,0.4,2s0.7,0.7,1.2,0.7c0.5,0,0.9-0.2,1.2-0.6 s0.4-1.1,0.4-2V257.9z" class="st2"/><path id="XMLID_609_" d="M924.6,259.9h-2.9V259h2.9V259.9z" class="st2"/><path id="XMLID_611_" d="M931.1,263.1h-5.6v-0.8l3-3.3c0.4-0.5,0.7-0.9,0.9-1.2s0.2-0.6,0.2-1c0-0.4-0.1-0.8-0.4-1.1 s-0.6-0.4-1.1-0.4c-0.5,0-1,0.2-1.3,0.5s-0.4,0.7-0.4,1.3h-1.1c0-0.8,0.3-1.4,0.8-1.9s1.2-0.7,2-0.7c0.8,0,1.4,0.2,1.9,0.6 s0.7,1,0.7,1.7c0,0.8-0.5,1.8-1.6,3l-2.3,2.5h4.3V263.1z" class="st2"/><path id="XMLID_613_" d="M937.6,259.4c0,1.3-0.2,2.2-0.7,2.8s-1.1,0.9-2,0.9c-0.9,0-1.6-0.3-2-0.9s-0.7-1.5-0.7-2.7 v-1.4c0-1.3,0.2-2.2,0.7-2.8s1.1-0.9,2-0.9c0.9,0,1.6,0.3,2,0.9s0.7,1.5,0.7,2.7V259.4z M936.5,257.9c0-0.9-0.1-1.6-0.4-2 s-0.7-0.6-1.2-0.6c-0.6,0-1,0.2-1.2,0.6s-0.4,1.1-0.4,1.9v1.7c0,0.9,0.1,1.6,0.4,2s0.7,0.7,1.2,0.7c0.5,0,0.9-0.2,1.2-0.6 s0.4-1.1,0.4-2V257.9z" class="st2"/><path id="XMLID_616_" d="M942.5,263.1h-1.1v-7.2l-2.2,0.8v-1l3.1-1.2h0.2V263.1z" class="st2"/><path id="XMLID_618_" d="M951.2,255.1l-3.5,7.9h-1.1l3.5-7.6h-4.6v-0.9h5.8V255.1z" class="st2"/><path id="XMLID_620_" d="M984.3,263.1h-1.1v-7.2l-2.2,0.8v-1l3.1-1.2h0.2V263.1z" class="st2"/><path id="XMLID_622_" d="M991,263.1h-1.1v-7.2l-2.2,0.8v-1l3.1-1.2h0.2V263.1z" class="st2"/><path id="XMLID_624_" d="M996.6,259.9h-2.9V259h2.9V259.9z" class="st2"/><path id="XMLID_626_" d="M1003.1,263.1h-5.6v-0.8l3-3.3c0.4-0.5,0.7-0.9,0.9-1.2s0.2-0.6,0.2-1c0-0.4-0.1-0.8-0.4-1.1 s-0.6-0.4-1.1-0.4c-0.5,0-1,0.2-1.3,0.5s-0.4,0.7-0.4,1.3h-1.1c0-0.8,0.3-1.4,0.8-1.9s1.2-0.7,2-0.7c0.8,0,1.4,0.2,1.9,0.6 s0.7,1,0.7,1.7c0,0.8-0.5,1.8-1.6,3l-2.3,2.5h4.3V263.1z" class="st2"/><path id="XMLID_628_" d="M1009.6,259.4c0,1.3-0.2,2.2-0.7,2.8s-1.1,0.9-2,0.9c-0.9,0-1.6-0.3-2-0.9s-0.7-1.5-0.7-2.7 v-1.4c0-1.3,0.2-2.2,0.7-2.8s1.1-0.9,2-0.9c0.9,0,1.6,0.3,2,0.9s0.7,1.5,0.7,2.7V259.4z M1008.5,257.9c0-0.9-0.1-1.6-0.4-2 s-0.7-0.6-1.2-0.6c-0.6,0-1,0.2-1.2,0.6s-0.4,1.1-0.4,1.9v1.7c0,0.9,0.1,1.6,0.4,2s0.7,0.7,1.2,0.7c0.5,0,0.9-0.2,1.2-0.6 s0.4-1.1,0.4-2V257.9z" class="st2"/><path id="XMLID_631_" d="M1014.5,263.1h-1.1v-7.2l-2.2,0.8v-1l3.1-1.2h0.2V263.1z" class="st2"/><path id="XMLID_633_" d="M1023.2,255.1l-3.5,7.9h-1.1l3.5-7.6h-4.6v-0.9h5.8V255.1z" class="st2"/><path id="XMLID_635_" d="M1056.3,263.1h-1.1v-7.2l-2.2,0.8v-1l3.1-1.2h0.2V263.1z" class="st2"/><path id="XMLID_637_" d="M1065,263.1h-5.6v-0.8l3-3.3c0.4-0.5,0.7-0.9,0.9-1.2s0.2-0.6,0.2-1c0-0.4-0.1-0.8-0.4-1.1 s-0.6-0.4-1.1-0.4c-0.5,0-1,0.2-1.3,0.5s-0.4,0.7-0.4,1.3h-1.1c0-0.8,0.3-1.4,0.8-1.9s1.2-0.7,2-0.7c0.8,0,1.4,0.2,1.9,0.6 s0.7,1,0.7,1.7c0,0.8-0.5,1.8-1.6,3l-2.3,2.5h4.3V263.1z" class="st2"/><path id="XMLID_639_" d="M1068.6,259.9h-2.9V259h2.9V259.9z" class="st2"/><path id="XMLID_641_" d="M1075.1,263.1h-5.6v-0.8l3-3.3c0.4-0.5,0.7-0.9,0.9-1.2s0.2-0.6,0.2-1c0-0.4-0.1-0.8-0.4-1.1 s-0.6-0.4-1.1-0.4c-0.5,0-1,0.2-1.3,0.5s-0.4,0.7-0.4,1.3h-1.1c0-0.8,0.3-1.4,0.8-1.9s1.2-0.7,2-0.7c0.8,0,1.4,0.2,1.9,0.6 s0.7,1,0.7,1.7c0,0.8-0.5,1.8-1.6,3l-2.3,2.5h4.3V263.1z" class="st2"/><path id="XMLID_643_" d="M1081.6,259.4c0,1.3-0.2,2.2-0.7,2.8s-1.1,0.9-2,0.9c-0.9,0-1.6-0.3-2-0.9s-0.7-1.5-0.7-2.7 v-1.4c0-1.3,0.2-2.2,0.7-2.8s1.1-0.9,2-0.9c0.9,0,1.6,0.3,2,0.9s0.7,1.5,0.7,2.7V259.4z M1080.5,257.9c0-0.9-0.1-1.6-0.4-2 s-0.7-0.6-1.2-0.6c-0.6,0-1,0.2-1.2,0.6s-0.4,1.1-0.4,1.9v1.7c0,0.9,0.1,1.6,0.4,2s0.7,0.7,1.2,0.7c0.5,0,0.9-0.2,1.2-0.6 s0.4-1.1,0.4-2V257.9z" class="st2"/><path id="XMLID_646_" d="M1086.5,263.1h-1.1v-7.2l-2.2,0.8v-1l3.1-1.2h0.2V263.1z" class="st2"/><path id="XMLID_648_" d="M1095.2,255.1l-3.5,7.9h-1.1l3.5-7.6h-4.6v-0.9h5.8V255.1z" class="st2"/><path id="XMLID_650_" d="M1130.1,259.4c0,1.3-0.2,2.2-0.7,2.8s-1.1,0.9-2,0.9c-0.9,0-1.6-0.3-2-0.9s-0.7-1.5-0.7-2.7 v-1.4c0-1.3,0.2-2.2,0.7-2.8s1.1-0.9,2-0.9c0.9,0,1.6,0.3,2,0.9s0.7,1.5,0.7,2.7V259.4z M1129,257.9c0-0.9-0.1-1.6-0.4-2 s-0.7-0.6-1.2-0.6c-0.6,0-1,0.2-1.2,0.6s-0.4,1.1-0.4,1.9v1.7c0,0.9,0.1,1.6,0.4,2s0.7,0.7,1.2,0.7c0.5,0,0.9-0.2,1.2-0.6 s0.4-1.1,0.4-2V257.9z" class="st2"/><path id="XMLID_653_" d="M1135,263.1h-1.1v-7.2l-2.2,0.8v-1l3.1-1.2h0.2V263.1z" class="st2"/><path id="XMLID_655_" d="M1140.6,259.9h-2.9V259h2.9V259.9z" class="st2"/><path id="XMLID_657_" d="M1147.1,263.1h-5.6v-0.8l3-3.3c0.4-0.5,0.7-0.9,0.9-1.2s0.2-0.6,0.2-1c0-0.4-0.1-0.8-0.4-1.1 s-0.6-0.4-1.1-0.4c-0.5,0-1,0.2-1.3,0.5s-0.4,0.7-0.4,1.3h-1.1c0-0.8,0.3-1.4,0.8-1.9s1.2-0.7,2-0.7c0.8,0,1.4,0.2,1.9,0.6 s0.7,1,0.7,1.7c0,0.8-0.5,1.8-1.6,3l-2.3,2.5h4.3V263.1z" class="st2"/><path id="XMLID_659_" d="M1153.6,259.4c0,1.3-0.2,2.2-0.7,2.8s-1.1,0.9-2,0.9c-0.9,0-1.6-0.3-2-0.9s-0.7-1.5-0.7-2.7 v-1.4c0-1.3,0.2-2.2,0.7-2.8s1.1-0.9,2-0.9c0.9,0,1.6,0.3,2,0.9s0.7,1.5,0.7,2.7V259.4z M1152.5,257.9c0-0.9-0.1-1.6-0.4-2 s-0.7-0.6-1.2-0.6c-0.6,0-1,0.2-1.2,0.6s-0.4,1.1-0.4,1.9v1.7c0,0.9,0.1,1.6,0.4,2s0.7,0.7,1.2,0.7c0.5,0,0.9-0.2,1.2-0.6 s0.4-1.1,0.4-2V257.9z" class="st2"/><path id="XMLID_662_" d="M1158.5,263.1h-1.1v-7.2l-2.2,0.8v-1l3.1-1.2h0.2V263.1z" class="st2"/><path id="XMLID_664_" d="M1166.9,256.8c0,0.4-0.1,0.8-0.3,1.1s-0.5,0.6-0.9,0.8c0.4,0.2,0.8,0.5,1.1,0.8 s0.4,0.8,0.4,1.2c0,0.7-0.2,1.3-0.7,1.8s-1.2,0.7-2,0.7c-0.8,0-1.5-0.2-2-0.7s-0.7-1-0.7-1.8c0-0.5,0.1-0.9,0.4-1.2s0.6-0.7,1-0.8 c-0.4-0.2-0.7-0.4-0.9-0.8s-0.3-0.7-0.3-1.1c0-0.7,0.2-1.3,0.7-1.7s1.1-0.6,1.8-0.6c0.8,0,1.4,0.2,1.8,0.6 S1166.9,256,1166.9,256.8z M1166,260.7c0-0.5-0.2-0.9-0.5-1.2s-0.7-0.5-1.2-0.5s-0.9,0.1-1.2,0.4s-0.4,0.7-0.4,1.2 s0.1,0.9,0.4,1.1s0.7,0.4,1.2,0.4c0.5,0,0.9-0.1,1.2-0.4S1166,261.2,1166,260.7z M1164.4,255.3c-0.4,0-0.8,0.1-1,0.4 s-0.4,0.6-0.4,1.1c0,0.4,0.1,0.8,0.4,1.1s0.6,0.4,1,0.4s0.8-0.1,1-0.4s0.4-0.6,0.4-1.1s-0.1-0.8-0.4-1.1 S1164.8,255.3,1164.4,255.3z" class="st2"/></g><path d="M57.3,214l58-16h33l55,8l91-11l36-9h70l30,6c0,0,31-11,35-13s73-29,73-29l45,22l29-2l37-15l102-13l6,56l10-60 l149-40l46,8l103-12l42-25l41-19" class="st3"/><g><g id="XMLID_897_"><path id="XMLID_920_" d="M717.9,294.6h-4.2v4.4h-1.3v-10h6.2v1.1h-4.9v3.4h4.2V294.6z" class="st2"/><path id="XMLID_918_" d="M723.4,292.7c-0.2,0-0.4,0-0.6,0c-0.8,0-1.4,0.4-1.7,1.1v5.3h-1.3v-7.4h1.2l0,0.9 c0.4-0.7,1-1,1.8-1c0.2,0,0.4,0,0.6,0.1V292.7z" class="st2"/><path id="XMLID_915_" d="M727.5,299.1c-1,0-1.8-0.3-2.4-1c-0.6-0.7-0.9-1.5-0.9-2.6v-0.2c0-0.7,0.1-1.4,0.4-2 c0.3-0.6,0.7-1,1.2-1.4c0.5-0.3,1-0.5,1.6-0.5c1,0,1.7,0.3,2.2,1c0.5,0.6,0.8,1.5,0.8,2.7v0.5h-5c0,0.7,0.2,1.3,0.6,1.8 c0.4,0.4,0.9,0.7,1.6,0.7c0.4,0,0.8-0.1,1.1-0.3c0.3-0.2,0.6-0.4,0.8-0.7l0.8,0.6C729.7,298.7,728.7,299.1,727.5,299.1z M727.3,292.5c-0.5,0-0.9,0.2-1.3,0.6c-0.3,0.4-0.6,0.9-0.6,1.6h3.7v-0.1c0-0.6-0.2-1.1-0.5-1.5 C728.3,292.7,727.9,292.5,727.3,292.5z" class="st2"/><path id="XMLID_913_" d="M734.8,298.1c0.5,0,0.8-0.1,1.2-0.4s0.5-0.6,0.6-1h1.2c0,0.4-0.2,0.8-0.4,1.2 c-0.3,0.4-0.6,0.7-1.1,0.9c-0.4,0.2-0.9,0.3-1.4,0.3c-1,0-1.8-0.3-2.4-1c-0.6-0.7-0.9-1.6-0.9-2.8v-0.2c0-0.7,0.1-1.4,0.4-1.9 c0.3-0.6,0.6-1,1.1-1.3c0.5-0.3,1.1-0.5,1.8-0.5c0.8,0,1.5,0.2,2.1,0.7c0.5,0.5,0.8,1.1,0.9,1.9h-1.2c0-0.5-0.2-0.9-0.5-1.2 c-0.3-0.3-0.7-0.5-1.2-0.5c-0.6,0-1.1,0.2-1.5,0.7c-0.4,0.5-0.5,1.1-0.5,2v0.2c0,0.9,0.2,1.5,0.5,2 C733.6,297.9,734.1,298.1,734.8,298.1z" class="st2"/><path id="XMLID_911_" d="M743.7,298.3c-0.5,0.6-1.2,0.9-2.2,0.9c-0.8,0-1.4-0.2-1.8-0.7c-0.4-0.5-0.6-1.1-0.6-2v-4.8 h1.3v4.8c0,1.1,0.5,1.7,1.4,1.7c1,0,1.6-0.4,1.9-1.1v-5.4h1.3v7.4h-1.2L743.7,298.3z" class="st2"/><path id="XMLID_908_" d="M749.9,299.1c-1,0-1.8-0.3-2.4-1c-0.6-0.7-0.9-1.5-0.9-2.6v-0.2c0-0.7,0.1-1.4,0.4-2 c0.3-0.6,0.7-1,1.2-1.4c0.5-0.3,1-0.5,1.6-0.5c1,0,1.7,0.3,2.2,1c0.5,0.6,0.8,1.5,0.8,2.7v0.5h-5c0,0.7,0.2,1.3,0.6,1.8 c0.4,0.4,0.9,0.7,1.6,0.7c0.4,0,0.8-0.1,1.1-0.3c0.3-0.2,0.6-0.4,0.8-0.7l0.8,0.6C752.1,298.7,751.2,299.1,749.9,299.1z M749.8,292.5c-0.5,0-0.9,0.2-1.3,0.6c-0.3,0.4-0.6,0.9-0.6,1.6h3.7v-0.1c0-0.6-0.2-1.1-0.5-1.5 C750.7,292.7,750.3,292.5,749.8,292.5z" class="st2"/><path id="XMLID_906_" d="M755.5,291.6l0,0.9c0.6-0.7,1.3-1.1,2.2-1.1c1.6,0,2.4,0.9,2.4,2.6v4.9h-1.3v-4.9 c0-0.5-0.1-0.9-0.4-1.2c-0.2-0.3-0.6-0.4-1.1-0.4c-0.4,0-0.8,0.1-1.1,0.3s-0.6,0.5-0.7,0.9v5.3h-1.3v-7.4H755.5z" class="st2"/><path id="XMLID_904_" d="M765,298.1c0.5,0,0.8-0.1,1.2-0.4s0.5-0.6,0.6-1h1.2c0,0.4-0.2,0.8-0.4,1.2 c-0.3,0.4-0.6,0.7-1.1,0.9c-0.4,0.2-0.9,0.3-1.4,0.3c-1,0-1.8-0.3-2.4-1c-0.6-0.7-0.9-1.6-0.9-2.8v-0.2c0-0.7,0.1-1.4,0.4-1.9 c0.3-0.6,0.6-1,1.1-1.3c0.5-0.3,1.1-0.5,1.8-0.5c0.8,0,1.5,0.2,2.1,0.7c0.5,0.5,0.8,1.1,0.9,1.9h-1.2c0-0.5-0.2-0.9-0.5-1.2 c-0.3-0.3-0.7-0.5-1.2-0.5c-0.6,0-1.1,0.2-1.5,0.7c-0.4,0.5-0.5,1.1-0.5,2v0.2c0,0.9,0.2,1.5,0.5,2 C763.8,297.9,764.3,298.1,765,298.1z" class="st2"/><path id="XMLID_901_" d="M769.4,289.6c0-0.2,0.1-0.4,0.2-0.5c0.1-0.1,0.3-0.2,0.6-0.2s0.4,0.1,0.6,0.2 c0.1,0.1,0.2,0.3,0.2,0.5s-0.1,0.4-0.2,0.5c-0.1,0.1-0.3,0.2-0.6,0.2s-0.4-0.1-0.6-0.2C769.4,290,769.4,289.8,769.4,289.6z M770.7,299h-1.3v-7.4h1.3V299z" class="st2"/><path id="XMLID_898_" d="M777.3,299c-0.1-0.1-0.1-0.4-0.2-0.8c-0.6,0.6-1.3,0.9-2.1,0.9c-0.7,0-1.3-0.2-1.8-0.6 c-0.5-0.4-0.7-0.9-0.7-1.6c0-0.8,0.3-1.4,0.9-1.8c0.6-0.4,1.4-0.6,2.5-0.6h1.2v-0.6c0-0.4-0.1-0.8-0.4-1.1 c-0.3-0.3-0.7-0.4-1.2-0.4c-0.5,0-0.8,0.1-1.1,0.3c-0.3,0.2-0.5,0.5-0.5,0.8h-1.3c0-0.4,0.1-0.7,0.4-1.1c0.3-0.3,0.6-0.6,1.1-0.8 c0.4-0.2,0.9-0.3,1.5-0.3c0.9,0,1.5,0.2,2,0.6c0.5,0.4,0.7,1,0.8,1.8v3.4c0,0.7,0.1,1.2,0.3,1.6v0.1H777.3z M775.2,298 c0.4,0,0.8-0.1,1.1-0.3s0.6-0.5,0.8-0.8v-1.5h-1c-1.5,0-2.3,0.5-2.3,1.4c0,0.4,0.1,0.7,0.4,0.9C774.5,297.9,774.8,298,775.2,298z" class="st2"/></g></g><g><g id="XMLID_785_"><path id="XMLID_791_" d="M895.4,299v-10h2.8c0.9,0,1.6,0.2,2.3,0.6s1.2,0.9,1.5,1.6c0.4,0.7,0.5,1.5,0.5,2.4v0.6 c0,0.9-0.2,1.8-0.5,2.5c-0.4,0.7-0.9,1.2-1.6,1.6c-0.7,0.4-1.5,0.6-2.3,0.6H895.4z M896.8,290.1v7.8h1.4c1,0,1.8-0.3,2.4-0.9 c0.6-0.6,0.8-1.5,0.8-2.7v-0.6c0-1.1-0.3-2-0.8-2.6c-0.5-0.6-1.3-0.9-2.3-1H896.8z" class="st2"/><path id="XMLID_788_" d="M907.5,299.1c-1,0-1.8-0.3-2.4-1c-0.6-0.7-0.9-1.5-0.9-2.6v-0.2c0-0.7,0.1-1.4,0.4-2 c0.3-0.6,0.7-1,1.2-1.4c0.5-0.3,1-0.5,1.6-0.5c1,0,1.7,0.3,2.2,1c0.5,0.6,0.8,1.5,0.8,2.7v0.5h-5c0,0.7,0.2,1.3,0.6,1.8 c0.4,0.4,0.9,0.7,1.6,0.7c0.4,0,0.8-0.1,1.1-0.3c0.3-0.2,0.6-0.4,0.8-0.7l0.8,0.6C909.7,298.7,908.7,299.1,907.5,299.1z M907.3,292.5c-0.5,0-0.9,0.2-1.3,0.6c-0.3,0.4-0.6,0.9-0.6,1.6h3.7v-0.1c0-0.6-0.2-1.1-0.5-1.5 C908.3,292.7,907.9,292.5,907.3,292.5z" class="st2"/><path id="XMLID_786_" d="M913.2,299H912v-10.5h1.3V299z" class="st2"/></g></g><g><g id="XMLID_823_"><path id="XMLID_834_" d="M1039.1,299h-1.3v-4.6h-5v4.6h-1.3v-10h1.3v4.3h5V289h1.3V299z" class="st2"/><path id="XMLID_831_" d="M1045.8,299c-0.1-0.1-0.1-0.4-0.2-0.8c-0.6,0.6-1.3,0.9-2.1,0.9c-0.7,0-1.3-0.2-1.8-0.6 c-0.5-0.4-0.7-0.9-0.7-1.6c0-0.8,0.3-1.4,0.9-1.8c0.6-0.4,1.4-0.6,2.5-0.6h1.2v-0.6c0-0.4-0.1-0.8-0.4-1.1 c-0.3-0.3-0.7-0.4-1.2-0.4c-0.5,0-0.8,0.1-1.1,0.3c-0.3,0.2-0.5,0.5-0.5,0.8h-1.3c0-0.4,0.1-0.7,0.4-1.1c0.3-0.3,0.6-0.6,1.1-0.8 c0.4-0.2,0.9-0.3,1.5-0.3c0.9,0,1.5,0.2,2,0.6c0.5,0.4,0.7,1,0.8,1.8v3.4c0,0.7,0.1,1.2,0.3,1.6v0.1H1045.8z M1043.7,298 c0.4,0,0.8-0.1,1.1-0.3s0.6-0.5,0.8-0.8v-1.5h-1c-1.5,0-2.3,0.5-2.3,1.4c0,0.4,0.1,0.7,0.4,0.9 C1042.9,297.9,1043.3,298,1043.7,298z" class="st2"/><path id="XMLID_829_" d="M1053.1,297c0-0.3-0.1-0.6-0.4-0.8c-0.3-0.2-0.7-0.4-1.3-0.5c-0.6-0.1-1.1-0.3-1.5-0.5 c-0.4-0.2-0.7-0.4-0.8-0.7c-0.2-0.3-0.3-0.6-0.3-0.9c0-0.6,0.3-1.1,0.8-1.5c0.5-0.4,1.2-0.6,2-0.6c0.8,0,1.5,0.2,2,0.6 c0.5,0.4,0.8,1,0.8,1.7h-1.3c0-0.3-0.1-0.6-0.4-0.9c-0.3-0.3-0.7-0.4-1.1-0.4c-0.5,0-0.8,0.1-1.1,0.3c-0.3,0.2-0.4,0.5-0.4,0.8 c0,0.3,0.1,0.5,0.4,0.7c0.2,0.2,0.7,0.3,1.3,0.4c0.6,0.1,1.1,0.3,1.5,0.5c0.4,0.2,0.7,0.4,0.9,0.7c0.2,0.3,0.3,0.6,0.3,1 c0,0.7-0.3,1.2-0.8,1.6c-0.5,0.4-1.2,0.6-2.1,0.6c-0.6,0-1.1-0.1-1.6-0.3c-0.5-0.2-0.8-0.5-1.1-0.9c-0.3-0.4-0.4-0.8-0.4-1.2h1.3 c0,0.4,0.2,0.8,0.5,1c0.3,0.2,0.7,0.4,1.3,0.4c0.5,0,0.9-0.1,1.2-0.3C1053,297.6,1053.1,297.4,1053.1,297z" class="st2"/><path id="XMLID_827_" d="M1057.8,289.8v1.8h1.4v1h-1.4v4.6c0,0.3,0.1,0.5,0.2,0.7c0.1,0.1,0.3,0.2,0.6,0.2 c0.1,0,0.3,0,0.6-0.1v1c-0.3,0.1-0.7,0.1-1,0.1c-0.6,0-1-0.2-1.3-0.5s-0.4-0.8-0.4-1.5v-4.6h-1.3v-1h1.3v-1.8H1057.8z" class="st2"/><path id="XMLID_824_" d="M1065.2,299c-0.1-0.1-0.1-0.4-0.2-0.8c-0.6,0.6-1.3,0.9-2.1,0.9c-0.7,0-1.3-0.2-1.8-0.6 c-0.5-0.4-0.7-0.9-0.7-1.6c0-0.8,0.3-1.4,0.9-1.8c0.6-0.4,1.4-0.6,2.5-0.6h1.2v-0.6c0-0.4-0.1-0.8-0.4-1.1 c-0.3-0.3-0.7-0.4-1.2-0.4c-0.5,0-0.8,0.1-1.1,0.3c-0.3,0.2-0.5,0.5-0.5,0.8h-1.3c0-0.4,0.1-0.7,0.4-1.1c0.3-0.3,0.6-0.6,1.1-0.8 c0.4-0.2,0.9-0.3,1.5-0.3c0.9,0,1.5,0.2,2,0.6c0.5,0.4,0.7,1,0.8,1.8v3.4c0,0.7,0.1,1.2,0.3,1.6v0.1H1065.2z M1063.1,298 c0.4,0,0.8-0.1,1.1-0.3s0.6-0.5,0.8-0.8v-1.5h-1c-1.5,0-2.3,0.5-2.3,1.4c0,0.4,0.1,0.7,0.4,0.9 C1062.3,297.9,1062.7,298,1063.1,298z" class="st2"/></g></g><g><g id="XMLID_837_"><path id="XMLID_847_" d="M805.9,296.4h-4.2l-0.9,2.6h-1.4l3.8-10h1.1l3.8,10h-1.3L805.9,296.4z M802.2,295.3h3.4 l-1.7-4.7L802.2,295.3z" class="st2"/><path id="XMLID_845_" d="M810.6,291.6l0,0.9c0.6-0.7,1.3-1.1,2.2-1.1c1.6,0,2.4,0.9,2.4,2.6v4.9h-1.3v-4.9 c0-0.5-0.1-0.9-0.4-1.2c-0.2-0.3-0.6-0.4-1.1-0.4c-0.4,0-0.8,0.1-1.1,0.3c-0.3,0.2-0.6,0.5-0.7,0.9v5.3h-1.3v-7.4H810.6z" class="st2"/><path id="XMLID_843_" d="M821.7,298.3c-0.5,0.6-1.2,0.9-2.2,0.9c-0.8,0-1.4-0.2-1.8-0.7c-0.4-0.5-0.6-1.1-0.6-2v-4.8 h1.3v4.8c0,1.1,0.5,1.7,1.4,1.7c1,0,1.6-0.4,1.9-1.1v-5.4h1.3v7.4h-1.2L821.7,298.3z" class="st2"/><path id="XMLID_840_" d="M829.4,299c-0.1-0.1-0.1-0.4-0.2-0.8c-0.6,0.6-1.3,0.9-2.1,0.9c-0.7,0-1.3-0.2-1.8-0.6 c-0.5-0.4-0.7-0.9-0.7-1.6c0-0.8,0.3-1.4,0.9-1.8c0.6-0.4,1.4-0.6,2.5-0.6h1.2v-0.6c0-0.4-0.1-0.8-0.4-1.1 c-0.3-0.3-0.7-0.4-1.2-0.4c-0.5,0-0.8,0.1-1.1,0.3c-0.3,0.2-0.5,0.5-0.5,0.8h-1.3c0-0.4,0.1-0.7,0.4-1.1c0.3-0.3,0.6-0.6,1.1-0.8 c0.4-0.2,0.9-0.3,1.5-0.3c0.9,0,1.5,0.2,2,0.6c0.5,0.4,0.7,1,0.8,1.8v3.4c0,0.7,0.1,1.2,0.3,1.6v0.1H829.4z M827.3,298 c0.4,0,0.8-0.1,1.1-0.3s0.6-0.5,0.8-0.8v-1.5h-1c-1.5,0-2.3,0.5-2.3,1.4c0,0.4,0.1,0.7,0.4,0.9C826.5,297.9,826.9,298,827.3,298z" class="st2"/><path id="XMLID_838_" d="M833.8,299h-1.3v-10.5h1.3V299z" class="st2"/></g></g><path d="M877.8,311.5h-80.5c-3.3,0-6-2.7-6-6v-22c0-3.3,2.7-6,6-6h80.5c3.3,0,6,2.7,6,6v22 C883.8,308.8,881.1,311.5,877.8,311.5z" class="st4"/><path d="M1012.8,311.5h-80.5c-3.3,0-6-2.7-6-6v-22c0-3.3,2.7-6,6-6h80.5c3.3,0,6,2.7,6,6v22 C1018.8,308.8,1016.1,311.5,1012.8,311.5z" class="st4"/><polygon points="872.6 296.3 878.3 293 867 293" class="st2"/><g><g id="XMLID_947_"><path id="XMLID_968_" d="M940,294.4h1c0.6,0,1.1-0.2,1.4-0.5s0.5-0.7,0.5-1.2c0-1.2-0.6-1.8-1.7-1.8 c-0.5,0-1,0.2-1.3,0.5c-0.3,0.3-0.5,0.7-0.5,1.2H938c0-0.8,0.3-1.4,0.9-2c0.6-0.5,1.3-0.8,2.2-0.8c0.9,0,1.7,0.2,2.2,0.7 s0.8,1.2,0.8,2.1c0,0.4-0.1,0.9-0.4,1.3c-0.3,0.4-0.7,0.7-1.1,0.9c0.5,0.2,1,0.5,1.3,0.9c0.3,0.4,0.4,0.9,0.4,1.5 c0,0.9-0.3,1.6-0.9,2.1s-1.3,0.8-2.3,0.8s-1.7-0.3-2.3-0.8c-0.6-0.5-0.9-1.2-0.9-2h1.3c0,0.5,0.2,0.9,0.5,1.3s0.8,0.5,1.4,0.5 c0.6,0,1.1-0.2,1.4-0.5s0.5-0.8,0.5-1.4c0-0.6-0.2-1-0.5-1.3s-0.9-0.5-1.5-0.5h-1V294.4z" class="st2"/><path id="XMLID_966_" d="M950.1,300h-1.3v-8.4l-2.5,0.9v-1.1l3.6-1.4h0.2V300z" class="st2"/><path id="XMLID_964_" d="M956.6,296.3h-3.3v-1h3.3V296.3z" class="st2"/><path id="XMLID_962_" d="M961.9,300h-1.3v-8.4l-2.5,0.9v-1.1l3.6-1.4h0.2V300z" class="st2"/><path id="XMLID_960_" d="M972.1,300h-6.5v-0.9l3.4-3.8c0.5-0.6,0.9-1,1.1-1.4c0.2-0.4,0.3-0.7,0.3-1.1 c0-0.5-0.2-0.9-0.5-1.3s-0.7-0.5-1.3-0.5c-0.6,0-1.1,0.2-1.5,0.5c-0.3,0.4-0.5,0.9-0.5,1.5h-1.3c0-0.9,0.3-1.7,0.9-2.2 c0.6-0.6,1.4-0.8,2.4-0.8c0.9,0,1.7,0.2,2.2,0.7c0.5,0.5,0.8,1.1,0.8,1.9c0,1-0.6,2.1-1.9,3.5l-2.7,2.9h5V300z" class="st2"/><path id="XMLID_958_" d="M976.2,296.3h-3.3v-1h3.3V296.3z" class="st2"/><path id="XMLID_956_" d="M981.4,300h-1.3v-8.4l-2.5,0.9v-1.1l3.6-1.4h0.2V300z" class="st2"/><path id="XMLID_953_" d="M990,295.6c-0.3,0.3-0.6,0.6-0.9,0.8c-0.4,0.2-0.8,0.3-1.2,0.3c-0.6,0-1.1-0.1-1.5-0.4 c-0.4-0.3-0.8-0.7-1-1.2c-0.2-0.5-0.3-1.1-0.3-1.7c0-0.7,0.1-1.3,0.4-1.8c0.3-0.5,0.6-0.9,1.1-1.2s1-0.4,1.6-0.4 c1,0,1.8,0.4,2.3,1.1c0.6,0.7,0.9,1.7,0.9,3v0.4c0,1.9-0.4,3.4-1.1,4.2c-0.8,0.9-1.9,1.3-3.5,1.4h-0.2v-1.1h0.3 c1,0,1.8-0.3,2.4-0.8S989.9,296.8,990,295.6z M988,295.6c0.4,0,0.8-0.1,1.2-0.4c0.4-0.3,0.6-0.6,0.8-1v-0.5c0-0.8-0.2-1.5-0.5-2 s-0.8-0.8-1.4-0.8c-0.6,0-1,0.2-1.3,0.6c-0.3,0.4-0.5,1-0.5,1.7c0,0.7,0.2,1.2,0.5,1.7C987.1,295.4,987.5,295.6,988,295.6z" class="st2"/><path id="XMLID_950_" d="M997.9,295.6c-0.3,0.3-0.6,0.6-0.9,0.8c-0.4,0.2-0.8,0.3-1.2,0.3c-0.6,0-1.1-0.1-1.5-0.4 c-0.4-0.3-0.8-0.7-1-1.2c-0.2-0.5-0.3-1.1-0.3-1.7c0-0.7,0.1-1.3,0.4-1.8c0.3-0.5,0.6-0.9,1.1-1.2s1-0.4,1.6-0.4 c1,0,1.8,0.4,2.3,1.1c0.6,0.7,0.9,1.7,0.9,3v0.4c0,1.9-0.4,3.4-1.1,4.2c-0.8,0.9-1.9,1.3-3.5,1.4h-0.2v-1.1h0.3 c1,0,1.8-0.3,2.4-0.8S997.8,296.8,997.9,295.6z M995.9,295.6c0.4,0,0.8-0.1,1.2-0.4c0.4-0.3,0.6-0.6,0.8-1v-0.5 c0-0.8-0.2-1.5-0.5-2s-0.8-0.8-1.4-0.8c-0.6,0-1,0.2-1.3,0.6c-0.3,0.4-0.5,1-0.5,1.7c0,0.7,0.2,1.2,0.5,1.7 C994.9,295.4,995.4,295.6,995.9,295.6z" class="st2"/><path id="XMLID_948_" d="M1007.4,300h-6.5v-0.9l3.4-3.8c0.5-0.6,0.9-1,1.1-1.4c0.2-0.4,0.3-0.7,0.3-1.1 c0-0.5-0.2-0.9-0.5-1.3s-0.7-0.5-1.3-0.5c-0.6,0-1.1,0.2-1.5,0.5c-0.3,0.4-0.5,0.9-0.5,1.5h-1.3c0-0.9,0.3-1.7,0.9-2.2 c0.6-0.6,1.4-0.8,2.4-0.8c0.9,0,1.7,0.2,2.2,0.7c0.5,0.5,0.8,1.1,0.8,1.9c0,1-0.6,2.1-1.9,3.5l-2.7,2.9h5V300z" class="st2"/></g></g><path d="M1162.8,311.5h-80.5c-3.3,0-6-2.7-6-6v-22c0-3.3,2.7-6,6-6h80.5c3.3,0,6,2.7,6,6v22 C1168.8,308.8,1166.1,311.5,1162.8,311.5z" class="st4"/><g><g id="XMLID_985_"><path id="XMLID_1008_" d="M1094.6,300h-6.5v-0.9l3.4-3.8c0.5-0.6,0.9-1,1.1-1.4c0.2-0.4,0.3-0.7,0.3-1.1 c0-0.5-0.2-0.9-0.5-1.3s-0.7-0.5-1.3-0.5c-0.6,0-1.1,0.2-1.5,0.5c-0.3,0.4-0.5,0.9-0.5,1.5h-1.3c0-0.9,0.3-1.7,0.9-2.2 c0.6-0.6,1.4-0.8,2.4-0.8c0.9,0,1.7,0.2,2.2,0.7c0.5,0.5,0.8,1.1,0.8,1.9c0,1-0.6,2.1-1.9,3.5l-2.7,2.9h5V300z" class="st2"/><path id="XMLID_1005_" d="M1102.2,295.8c0,1.5-0.3,2.6-0.8,3.3s-1.3,1.1-2.4,1.1c-1.1,0-1.8-0.4-2.4-1.1 c-0.5-0.7-0.8-1.8-0.8-3.2v-1.7c0-1.5,0.3-2.5,0.8-3.3s1.3-1.1,2.4-1.1c1.1,0,1.9,0.3,2.4,1c0.5,0.7,0.8,1.7,0.8,3.2V295.8z M1101,294c0-1.1-0.2-1.9-0.5-2.3c-0.3-0.5-0.8-0.7-1.4-0.7c-0.6,0-1.1,0.2-1.4,0.7s-0.4,1.2-0.5,2.2v2c0,1.1,0.2,1.9,0.5,2.4 c0.3,0.5,0.8,0.8,1.4,0.8c0.6,0,1.1-0.2,1.4-0.7c0.3-0.5,0.5-1.2,0.5-2.3V294z" class="st2"/><path id="XMLID_1003_" d="M1106.6,296.3h-3.3v-1h3.3V296.3z" class="st2"/><path id="XMLID_1001_" d="M1111.9,300h-1.3v-8.4l-2.5,0.9v-1.1l3.6-1.4h0.2V300z" class="st2"/><path id="XMLID_999_" d="M1122.1,300h-6.5v-0.9l3.4-3.8c0.5-0.6,0.9-1,1.1-1.4c0.2-0.4,0.3-0.7,0.3-1.1 c0-0.5-0.2-0.9-0.5-1.3s-0.7-0.5-1.3-0.5c-0.6,0-1.1,0.2-1.5,0.5c-0.3,0.4-0.5,0.9-0.5,1.5h-1.3c0-0.9,0.3-1.7,0.9-2.2 c0.6-0.6,1.4-0.8,2.4-0.8c0.9,0,1.7,0.2,2.2,0.7c0.5,0.5,0.8,1.1,0.8,1.9c0,1-0.6,2.1-1.9,3.5l-2.7,2.9h5V300z" class="st2"/><path id="XMLID_997_" d="M1126.2,296.3h-3.3v-1h3.3V296.3z" class="st2"/><path id="XMLID_995_" d="M1133.8,300h-6.5v-0.9l3.4-3.8c0.5-0.6,0.9-1,1.1-1.4c0.2-0.4,0.3-0.7,0.3-1.1 c0-0.5-0.2-0.9-0.5-1.3s-0.7-0.5-1.3-0.5c-0.6,0-1.1,0.2-1.5,0.5c-0.3,0.4-0.5,0.9-0.5,1.5h-1.3c0-0.9,0.3-1.7,0.9-2.2 c0.6-0.6,1.4-0.8,2.4-0.8c0.9,0,1.7,0.2,2.2,0.7c0.5,0.5,0.8,1.1,0.8,1.9c0,1-0.6,2.1-1.9,3.5l-2.7,2.9h5V300z" class="st2"/><path id="XMLID_992_" d="M1141.4,295.8c0,1.5-0.3,2.6-0.8,3.3s-1.3,1.1-2.4,1.1c-1.1,0-1.8-0.4-2.4-1.1 c-0.5-0.7-0.8-1.8-0.8-3.2v-1.7c0-1.5,0.3-2.5,0.8-3.3s1.3-1.1,2.4-1.1c1.1,0,1.9,0.3,2.4,1c0.5,0.7,0.8,1.7,0.8,3.2V295.8z M1140.1,294c0-1.1-0.2-1.9-0.5-2.3c-0.3-0.5-0.8-0.7-1.4-0.7c-0.6,0-1.1,0.2-1.4,0.7s-0.4,1.2-0.5,2.2v2c0,1.1,0.2,1.9,0.5,2.4 c0.3,0.5,0.8,0.8,1.4,0.8c0.6,0,1.1-0.2,1.4-0.7c0.3-0.5,0.5-1.2,0.5-2.3V294z" class="st2"/><path id="XMLID_990_" d="M1147.2,300h-1.3v-8.4l-2.5,0.9v-1.1l3.6-1.4h0.2V300z" class="st2"/><path id="XMLID_986_" d="M1156.9,292.6c0,0.5-0.1,0.9-0.4,1.3c-0.3,0.4-0.6,0.7-1.1,0.9c0.5,0.2,0.9,0.5,1.2,1 c0.3,0.4,0.5,0.9,0.5,1.5c0,0.9-0.3,1.5-0.9,2.1c-0.6,0.5-1.3,0.8-2.3,0.8c-1,0-1.7-0.3-2.3-0.8c-0.6-0.5-0.9-1.2-0.9-2.1 c0-0.5,0.1-1,0.4-1.5c0.3-0.4,0.7-0.8,1.2-1c-0.4-0.2-0.8-0.5-1-0.9s-0.4-0.8-0.4-1.3c0-0.8,0.3-1.5,0.8-2s1.2-0.7,2.1-0.7 c0.9,0,1.6,0.2,2.1,0.7C1156.6,291.1,1156.9,291.8,1156.9,292.6z M1155.9,297.3c0-0.6-0.2-1-0.5-1.4c-0.4-0.4-0.8-0.5-1.4-0.5 s-1,0.2-1.4,0.5c-0.3,0.3-0.5,0.8-0.5,1.4s0.2,1,0.5,1.3c0.3,0.3,0.8,0.5,1.4,0.5c0.6,0,1.1-0.2,1.4-0.5 C1155.7,298.3,1155.9,297.8,1155.9,297.3z M1154,291c-0.5,0-0.9,0.2-1.2,0.5c-0.3,0.3-0.5,0.7-0.5,1.3c0,0.5,0.2,0.9,0.5,1.2 c0.3,0.3,0.7,0.5,1.2,0.5s0.9-0.2,1.2-0.5c0.3-0.3,0.5-0.7,0.5-1.2s-0.2-0.9-0.5-1.2S1154.5,291,1154,291z" class="st2"/></g></g><rect width="1125" height="26" x="43.3" y="327" class="st5"/><g><rect width="9" height="17" x="1163.8" y="331.5" class="st6"/><line x1="1166.8" x2="1166.8" y1="335" y2="345" class="st7"/><line x1="1169.8" x2="1169.8" y1="335" y2="345" class="st7"/></g><g><rect width="9" height="17" x="38.8" y="331.5" class="st6"/><line x1="41.8" x2="41.8" y1="335" y2="345" class="st7"/><line x1="44.8" x2="44.8" y1="335" y2="345" class="st7"/></g><path d="M57.3,348l58-1.7h33l55,0.8l91-1.1l36-0.9h70l30,0.6c0,0,31-1.1,35-1.3s73-3,73-3l45,2.3l29-0.2l37-1.6 l102-1.3l6,5.8l10-6.2l149-4.1l46,0.8l103-1.2l42-2.6l41-2" class="st8"/><g><g><g id="XMLID_1032_"><path id="XMLID_1058_" d="M48.4,296.4c-0.1,0.7-0.3,1.2-0.7,1.6c-0.4,0.4-1,0.6-1.7,0.6c-0.8,0-1.4-0.3-1.8-0.8 s-0.7-1.3-0.7-2.2v-0.6c0-0.6,0.1-1.1,0.3-1.6c0.2-0.5,0.5-0.8,0.9-1c0.4-0.2,0.8-0.4,1.4-0.4c0.7,0,1.2,0.2,1.6,0.6 c0.4,0.4,0.6,0.9,0.7,1.6h-0.8c-0.1-0.5-0.2-0.9-0.5-1.1c-0.2-0.2-0.6-0.3-1-0.3c-0.5,0-1,0.2-1.3,0.6s-0.5,1-0.5,1.7v0.6 c0,0.7,0.1,1.2,0.4,1.7s0.7,0.6,1.2,0.6c0.5,0,0.8-0.1,1.1-0.3c0.3-0.2,0.4-0.6,0.5-1.1H48.4z" class="st2"/><path id="XMLID_1055_" d="M49.2,296c0-0.5,0.1-0.9,0.3-1.3c0.2-0.4,0.4-0.7,0.8-0.9c0.3-0.2,0.7-0.3,1.1-0.3 c0.6,0,1.2,0.2,1.6,0.7c0.4,0.4,0.6,1,0.6,1.8v0.1c0,0.5-0.1,0.9-0.3,1.2c-0.2,0.4-0.4,0.7-0.8,0.9c-0.3,0.2-0.7,0.3-1.1,0.3 c-0.6,0-1.2-0.2-1.6-0.7C49.4,297.4,49.2,296.8,49.2,296L49.2,296z M50,296.1c0,0.5,0.1,1,0.4,1.3s0.6,0.5,1,0.5 c0.4,0,0.7-0.2,1-0.5c0.2-0.3,0.4-0.8,0.4-1.4c0-0.5-0.1-0.9-0.4-1.3c-0.2-0.3-0.6-0.5-1-0.5c-0.4,0-0.7,0.2-1,0.5 S50,295.5,50,296.1z" class="st2"/><path id="XMLID_1053_" d="M55.3,293.7l0,0.5c0.3-0.4,0.8-0.6,1.4-0.6c0.7,0,1.1,0.3,1.4,0.8 c0.2-0.2,0.4-0.4,0.6-0.6c0.3-0.1,0.6-0.2,0.9-0.2c1,0,1.6,0.6,1.6,1.7v3.2h-0.8v-3.1c0-0.3-0.1-0.6-0.2-0.8 c-0.2-0.2-0.4-0.3-0.8-0.3c-0.3,0-0.6,0.1-0.8,0.3c-0.2,0.2-0.3,0.4-0.3,0.7v3.2h-0.8v-3.1c0-0.7-0.3-1-1-1 c-0.5,0-0.9,0.2-1.1,0.7v3.5h-0.8v-4.8H55.3z" class="st2"/><path id="XMLID_1050_" d="M66.5,296.1c0,0.7-0.2,1.3-0.5,1.7c-0.3,0.4-0.8,0.7-1.3,0.7c-0.6,0-1-0.2-1.4-0.5v2.3 h-0.8v-6.6h0.7l0,0.5c0.3-0.4,0.8-0.6,1.4-0.6c0.6,0,1,0.2,1.4,0.6C66.3,294.7,66.5,295.3,66.5,296.1L66.5,296.1z M65.7,296 c0-0.5-0.1-1-0.3-1.3c-0.2-0.3-0.5-0.5-0.9-0.5c-0.5,0-0.9,0.2-1.1,0.7v2.3c0.2,0.4,0.6,0.7,1.1,0.7c0.4,0,0.7-0.2,0.9-0.5 C65.5,297.1,65.7,296.6,65.7,296z" class="st2"/><path id="XMLID_1047_" d="M70.4,298.5c0-0.1-0.1-0.3-0.1-0.5c-0.4,0.4-0.8,0.6-1.4,0.6c-0.5,0-0.9-0.1-1.2-0.4 c-0.3-0.3-0.5-0.6-0.5-1c0-0.5,0.2-0.9,0.6-1.2c0.4-0.3,0.9-0.4,1.6-0.4h0.8v-0.4c0-0.3-0.1-0.5-0.3-0.7 c-0.2-0.2-0.4-0.3-0.8-0.3c-0.3,0-0.5,0.1-0.7,0.2c-0.2,0.1-0.3,0.3-0.3,0.5h-0.8c0-0.2,0.1-0.5,0.3-0.7 c0.2-0.2,0.4-0.4,0.7-0.5s0.6-0.2,1-0.2c0.5,0,1,0.1,1.3,0.4c0.3,0.3,0.5,0.7,0.5,1.1v2.2c0,0.4,0.1,0.8,0.2,1v0.1H70.4z M69.1,297.8c0.3,0,0.5-0.1,0.7-0.2s0.4-0.3,0.5-0.5v-1h-0.6c-1,0-1.5,0.3-1.5,0.9c0,0.3,0.1,0.5,0.3,0.6S68.8,297.8,69.1,297.8 z" class="st2"/><path id="XMLID_1045_" d="M74.7,294.4c-0.1,0-0.3,0-0.4,0c-0.5,0-0.9,0.2-1.1,0.7v3.4h-0.8v-4.8h0.8l0,0.5 c0.3-0.4,0.6-0.6,1.1-0.6c0.2,0,0.3,0,0.4,0.1V294.4z" class="st2"/><path id="XMLID_1043_" d="M76.8,292.5v1.2h0.9v0.6h-0.9v3c0,0.2,0,0.3,0.1,0.4c0.1,0.1,0.2,0.1,0.4,0.1 c0.1,0,0.2,0,0.4-0.1v0.7c-0.2,0.1-0.4,0.1-0.6,0.1c-0.4,0-0.6-0.1-0.8-0.3c-0.2-0.2-0.3-0.5-0.3-0.9v-2.9h-0.9v-0.6h0.9v-1.2 H76.8z" class="st2"/><path id="XMLID_1040_" d="M78.6,292.4c0-0.1,0-0.2,0.1-0.3s0.2-0.1,0.4-0.1s0.3,0,0.4,0.1s0.1,0.2,0.1,0.3 c0,0.1,0,0.2-0.1,0.3s-0.2,0.1-0.4,0.1s-0.3,0-0.4-0.1S78.6,292.6,78.6,292.4z M79.5,298.5h-0.8v-4.8h0.8V298.5z" class="st2"/><path id="XMLID_1038_" d="M83.1,294.4c-0.1,0-0.3,0-0.4,0c-0.5,0-0.9,0.2-1.1,0.7v3.4h-0.8v-4.8h0.8l0,0.5 c0.3-0.4,0.6-0.6,1.1-0.6c0.2,0,0.3,0,0.4,0.1V294.4z" class="st2"/><path id="XMLID_1035_" d="M88,298.5c-0.6,0-1.2-0.2-1.6-0.6c-0.4-0.4-0.6-1-0.6-1.7v-0.1c0-0.5,0.1-0.9,0.3-1.3 c0.2-0.4,0.4-0.7,0.8-0.9c0.3-0.2,0.7-0.3,1.1-0.3c0.6,0,1.1,0.2,1.4,0.6c0.3,0.4,0.5,1,0.5,1.8v0.3h-3.2c0,0.5,0.1,0.8,0.4,1.1 c0.3,0.3,0.6,0.4,1,0.4c0.3,0,0.5-0.1,0.7-0.2c0.2-0.1,0.4-0.3,0.5-0.5l0.5,0.4C89.4,298.2,88.8,298.5,88,298.5z M87.9,294.3 c-0.3,0-0.6,0.1-0.8,0.4c-0.2,0.2-0.4,0.6-0.4,1h2.4v-0.1c0-0.4-0.1-0.7-0.3-1C88.5,294.4,88.3,294.3,87.9,294.3z" class="st2"/><path id="XMLID_1033_" d="M91.6,293.7l0,0.6c0.4-0.5,0.8-0.7,1.4-0.7c1,0,1.5,0.6,1.5,1.7v3.1h-0.8v-3.1 c0-0.3-0.1-0.6-0.2-0.8c-0.2-0.2-0.4-0.2-0.7-0.2c-0.3,0-0.5,0.1-0.7,0.2s-0.4,0.3-0.5,0.6v3.4h-0.8v-4.8H91.6z" class="st2"/></g></g><g><circle cx="116.3" cy="295.8" r="8" class="st9"/><path d="M114.8,299.8c3.6,0,5.6-3,5.6-5.6c0-0.1,0-0.2,0-0.3c0.4-0.3,0.7-0.6,1-1c-0.4,0.2-0.7,0.3-1.1,0.3 c0.4-0.2,0.7-0.6,0.9-1.1c-0.4,0.2-0.8,0.4-1.2,0.5c-0.7-0.8-2-0.8-2.8-0.1c-0.5,0.5-0.7,1.2-0.6,1.9c-1.6-0.1-3-0.8-4-2 c-0.5,0.9-0.3,2,0.6,2.6c-0.3,0-0.6-0.1-0.9-0.2c0,0,0,0,0,0c0,0.9,0.7,1.7,1.6,1.9c-0.3,0.1-0.6,0.1-0.9,0 c0.3,0.8,1,1.3,1.8,1.4c-0.7,0.5-1.5,0.8-2.4,0.8c-0.2,0-0.3,0-0.5,0C112.7,299.5,113.8,299.8,114.8,299.8" class="st10"/></g><g><circle cx="138.3" cy="295.8" r="8" class="st11"/><path id="f_14_" d="M139,300.9v-4.4h1.5l0.2-1.7H139v-1.1c0-0.5,0.1-0.8,0.8-0.8l0.9,0v-1.5c-0.2,0-0.7-0.1-1.3-0.1 c-1.3,0-2.2,0.8-2.2,2.2v1.3h-1.5v1.7h1.5v4.4H139z" class="st10"/></g><path d="M457,309.8H176.9c-7.7,0-14-6.3-14-14v0c0-7.7,6.3-14,14-14H457c7.7,0,14,6.3,14,14v0 C470.9,303.5,464.6,309.8,457,309.8z" class="st12"/><g><path d="M188.9,289.7c-1.3-1.3-3.3-1.3-4.6,0l-1.4,1.4c-0.8,0.8-1.1,2-0.8,3.1l1.9-1.9c0,0,0-0.1,0.1-0.1l1.4-1.4 c0.3-0.3,0.7-0.5,1.2-0.5c0.4,0,0.9,0.2,1.2,0.5c0.3,0.3,0.5,0.7,0.5,1.2s-0.2,0.9-0.5,1.2l-1.4,1.4c-0.1,0.1-0.1,0.1-0.2,0.1 l-1.8,1.8c1.1,0.3,2.3,0,3.1-0.8l1.4-1.4C190.1,293,190.1,291,188.9,289.7z" class="st13"/><path d="M181.7,299.2c0,0.1-0.1,0.1-0.1,0.2l-1.4,1.4c-0.3,0.3-0.7,0.5-1.2,0.5c-0.4,0-0.9-0.2-1.2-0.5 c-0.3-0.3-0.5-0.7-0.5-1.2c0-0.4,0.2-0.9,0.5-1.2l1.4-1.4c0,0,0.1,0,0.1-0.1l1.9-1.9c-1.1-0.3-2.3,0-3.1,0.8l-1.4,1.4 c-1.3,1.3-1.3,3.3,0,4.6c1.3,1.3,3.3,1.3,4.6,0l1.4-1.4c0.8-0.8,1.1-2,0.8-3.1L181.7,299.2z" class="st13"/><path d="M185.8,292.8c-0.3-0.3-0.8-0.3-1.1,0c0,0,0,0-0.1,0.1l-4.8,4.8c0,0,0,0-0.1,0.1c-0.3,0.3-0.3,0.8,0,1.1 c0.3,0.3,0.8,0.3,1.1,0l0,0l4.9-4.9l0,0l0,0C186.1,293.6,186.1,293.1,185.8,292.8z" class="st13"/></g><g><g id="XMLID_1670_"><path id="XMLID_1783_" d="M202.4,295.4h-3.7v3h4.3v0.9h-5.4v-8.5h5.4v0.9h-4.2v2.7h3.7V295.4z" class="st2"/><path id="XMLID_1781_" d="M205.2,293l0,0.8c0.5-0.6,1.1-0.9,1.9-0.9c1.3,0,2,0.8,2,2.3v4.2h-1.1v-4.2 c0-0.5-0.1-0.8-0.3-1s-0.5-0.3-1-0.3c-0.4,0-0.7,0.1-0.9,0.3s-0.5,0.4-0.6,0.7v4.5h-1.1V293H205.2z" class="st2"/><path id="XMLID_1779_" d="M212,299.3h-1.1v-9h1.1V299.3z" class="st2"/><path id="XMLID_1776_" d="M217.7,299.3c-0.1-0.1-0.1-0.3-0.2-0.7c-0.5,0.5-1.1,0.8-1.8,0.8c-0.6,0-1.1-0.2-1.5-0.5 s-0.6-0.8-0.6-1.3c0-0.7,0.3-1.2,0.8-1.5s1.2-0.5,2.1-0.5h1.1V295c0-0.4-0.1-0.7-0.3-0.9s-0.6-0.3-1-0.3c-0.4,0-0.7,0.1-1,0.3 s-0.4,0.4-0.4,0.7h-1.1c0-0.3,0.1-0.6,0.3-0.9s0.5-0.5,0.9-0.7s0.8-0.3,1.3-0.3c0.7,0,1.3,0.2,1.7,0.5s0.6,0.9,0.6,1.5v2.9 c0,0.6,0.1,1,0.2,1.4v0.1H217.7z M215.9,298.5c0.3,0,0.7-0.1,1-0.3s0.5-0.4,0.7-0.7v-1.3h-0.8c-1.3,0-2,0.4-2,1.2 c0,0.3,0.1,0.6,0.3,0.8S215.5,298.5,215.9,298.5z" class="st2"/><path id="XMLID_1774_" d="M222.8,298.6c0.4,0,0.7-0.1,1-0.4s0.4-0.5,0.5-0.9h1c0,0.4-0.1,0.7-0.4,1 s-0.5,0.6-0.9,0.8s-0.8,0.3-1.2,0.3c-0.9,0-1.5-0.3-2.1-0.9s-0.8-1.4-0.8-2.4V296c0-0.6,0.1-1.2,0.3-1.6s0.6-0.9,1-1.1 s0.9-0.4,1.5-0.4c0.7,0,1.3,0.2,1.8,0.6s0.7,1,0.8,1.7h-1c0-0.4-0.2-0.7-0.5-1s-0.6-0.4-1-0.4c-0.6,0-1,0.2-1.3,0.6 s-0.5,1-0.5,1.7v0.2c0,0.7,0.2,1.3,0.5,1.7S222.3,298.6,222.8,298.6z" class="st2"/><path id="XMLID_1771_" d="M229.2,299.4c-0.9,0-1.6-0.3-2.1-0.8s-0.8-1.3-0.8-2.3v-0.2c0-0.6,0.1-1.2,0.4-1.7 s0.6-0.9,1-1.2s0.9-0.4,1.4-0.4c0.8,0,1.5,0.3,1.9,0.8s0.7,1.3,0.7,2.3v0.5h-4.3c0,0.6,0.2,1.1,0.5,1.5s0.8,0.6,1.3,0.6 c0.4,0,0.7-0.1,1-0.2s0.5-0.4,0.7-0.6l0.7,0.5C231,299,230.3,299.4,229.2,299.4z M229.1,293.8c-0.4,0-0.8,0.2-1.1,0.5 s-0.5,0.8-0.6,1.3h3.2v-0.1c0-0.6-0.2-1-0.4-1.3S229.5,293.8,229.1,293.8z" class="st2"/><path id="XMLID_1768_" d="M241.2,296.2c0,1-0.2,1.7-0.7,2.3s-1,0.9-1.8,0.9c-0.8,0-1.4-0.2-1.8-0.7v3.1h-1.1V293h1 l0.1,0.7c0.4-0.5,1.1-0.8,1.8-0.8c0.8,0,1.4,0.3,1.8,0.9S241.2,295.1,241.2,296.2L241.2,296.2z M240.2,296.1 c0-0.7-0.2-1.3-0.5-1.7s-0.7-0.6-1.3-0.6c-0.7,0-1.1,0.3-1.5,0.9v3c0.3,0.6,0.8,0.9,1.5,0.9c0.5,0,0.9-0.2,1.2-0.6 S240.2,296.9,240.2,296.1z" class="st2"/><path id="XMLID_1765_" d="M246.5,299.3c-0.1-0.1-0.1-0.3-0.2-0.7c-0.5,0.5-1.1,0.8-1.8,0.8c-0.6,0-1.1-0.2-1.5-0.5 s-0.6-0.8-0.6-1.3c0-0.7,0.3-1.2,0.8-1.5s1.2-0.5,2.1-0.5h1.1V295c0-0.4-0.1-0.7-0.3-0.9s-0.6-0.3-1-0.3c-0.4,0-0.7,0.1-1,0.3 s-0.4,0.4-0.4,0.7h-1.1c0-0.3,0.1-0.6,0.3-0.9s0.5-0.5,0.9-0.7s0.8-0.3,1.3-0.3c0.7,0,1.3,0.2,1.7,0.5s0.6,0.9,0.6,1.5v2.9 c0,0.6,0.1,1,0.2,1.4v0.1H246.5z M244.7,298.5c0.3,0,0.7-0.1,1-0.3s0.5-0.4,0.7-0.7v-1.3h-0.8c-1.3,0-2,0.4-2,1.2 c0,0.3,0.1,0.6,0.3,0.8S244.4,298.5,244.7,298.5z" class="st2"/><path id="XMLID_1763_" d="M252.2,294c-0.2,0-0.3,0-0.5,0c-0.7,0-1.2,0.3-1.4,0.9v4.5h-1.1V293h1.1l0,0.7 c0.4-0.6,0.9-0.8,1.5-0.8c0.2,0,0.4,0,0.5,0.1V294z" class="st2"/><path id="XMLID_1760_" d="M256.9,299.3c-0.1-0.1-0.1-0.3-0.2-0.7c-0.5,0.5-1.1,0.8-1.8,0.8c-0.6,0-1.1-0.2-1.5-0.5 s-0.6-0.8-0.6-1.3c0-0.7,0.3-1.2,0.8-1.5s1.2-0.5,2.1-0.5h1.1V295c0-0.4-0.1-0.7-0.3-0.9s-0.6-0.3-1-0.3c-0.4,0-0.7,0.1-1,0.3 s-0.4,0.4-0.4,0.7h-1.1c0-0.3,0.1-0.6,0.3-0.9s0.5-0.5,0.9-0.7s0.8-0.3,1.3-0.3c0.7,0,1.3,0.2,1.7,0.5s0.6,0.9,0.6,1.5v2.9 c0,0.6,0.1,1,0.2,1.4v0.1H256.9z M255.1,298.5c0.3,0,0.7-0.1,1-0.3s0.5-0.4,0.7-0.7v-1.3h-0.8c-1.3,0-2,0.4-2,1.2 c0,0.3,0.1,0.6,0.3,0.8S254.7,298.5,255.1,298.5z" class="st2"/><path id="XMLID_1758_" d="M265,298.6c0.4,0,0.7-0.1,1-0.4s0.4-0.5,0.5-0.9h1c0,0.4-0.1,0.7-0.4,1s-0.5,0.6-0.9,0.8 s-0.8,0.3-1.2,0.3c-0.9,0-1.5-0.3-2.1-0.9s-0.8-1.4-0.8-2.4V296c0-0.6,0.1-1.2,0.3-1.6s0.6-0.9,1-1.1s0.9-0.4,1.5-0.4 c0.7,0,1.3,0.2,1.8,0.6s0.7,1,0.8,1.7h-1c0-0.4-0.2-0.7-0.5-1s-0.6-0.4-1-0.4c-0.6,0-1,0.2-1.3,0.6s-0.5,1-0.5,1.7v0.2 c0,0.7,0.2,1.3,0.5,1.7S264.5,298.6,265,298.6z" class="st2"/><path id="XMLID_1755_" d="M268.5,296.1c0-0.6,0.1-1.2,0.4-1.7s0.6-0.9,1-1.1s0.9-0.4,1.5-0.4c0.9,0,1.6,0.3,2.1,0.9 s0.8,1.4,0.8,2.4v0.1c0,0.6-0.1,1.2-0.4,1.7s-0.6,0.9-1,1.1s-0.9,0.4-1.5,0.4c-0.9,0-1.6-0.3-2.1-0.9S268.5,297.2,268.5,296.1 L268.5,296.1z M269.6,296.2c0,0.7,0.2,1.3,0.5,1.7s0.8,0.6,1.3,0.6c0.6,0,1-0.2,1.3-0.6s0.5-1,0.5-1.8c0-0.7-0.2-1.3-0.5-1.7 s-0.8-0.6-1.3-0.6c-0.5,0-1,0.2-1.3,0.6S269.6,295.4,269.6,296.2z" class="st2"/><path id="XMLID_1753_" d="M276.6,293l0,0.7c0.5-0.5,1.1-0.8,1.9-0.8c0.9,0,1.5,0.3,1.8,1c0.2-0.3,0.5-0.6,0.8-0.7 s0.7-0.3,1.2-0.3c1.4,0,2.1,0.7,2.1,2.2v4.2h-1.1v-4.2c0-0.5-0.1-0.8-0.3-1s-0.6-0.3-1-0.3c-0.4,0-0.7,0.1-1,0.4s-0.4,0.6-0.5,1 v4.2h-1.1v-4.2c0-0.9-0.5-1.4-1.4-1.4c-0.7,0-1.2,0.3-1.5,0.9v4.6h-1.1V293H276.6z" class="st2"/><path id="XMLID_1750_" d="M291.5,296.2c0,1-0.2,1.7-0.7,2.3s-1,0.9-1.8,0.9c-0.8,0-1.4-0.2-1.8-0.7v3.1h-1.1V293h1 l0.1,0.7c0.4-0.5,1.1-0.8,1.8-0.8c0.8,0,1.4,0.3,1.8,0.9S291.5,295.1,291.5,296.2L291.5,296.2z M290.4,296.1 c0-0.7-0.2-1.3-0.5-1.7s-0.7-0.6-1.3-0.6c-0.7,0-1.1,0.3-1.5,0.9v3c0.3,0.6,0.8,0.9,1.5,0.9c0.5,0,0.9-0.2,1.2-0.6 S290.4,296.9,290.4,296.1z" class="st2"/><path id="XMLID_1747_" d="M296.8,299.3c-0.1-0.1-0.1-0.3-0.2-0.7c-0.5,0.5-1.1,0.8-1.8,0.8c-0.6,0-1.1-0.2-1.5-0.5 s-0.6-0.8-0.6-1.3c0-0.7,0.3-1.2,0.8-1.5s1.2-0.5,2.1-0.5h1.1V295c0-0.4-0.1-0.7-0.3-0.9s-0.6-0.3-1-0.3c-0.4,0-0.7,0.1-1,0.3 s-0.4,0.4-0.4,0.7h-1.1c0-0.3,0.1-0.6,0.3-0.9s0.5-0.5,0.9-0.7s0.8-0.3,1.3-0.3c0.7,0,1.3,0.2,1.7,0.5s0.6,0.9,0.6,1.5v2.9 c0,0.6,0.1,1,0.2,1.4v0.1H296.8z M295,298.5c0.3,0,0.7-0.1,1-0.3s0.5-0.4,0.7-0.7v-1.3h-0.8c-1.3,0-2,0.4-2,1.2 c0,0.3,0.1,0.6,0.3,0.8S294.6,298.5,295,298.5z" class="st2"/><path id="XMLID_1745_" d="M302.4,294c-0.2,0-0.3,0-0.5,0c-0.7,0-1.2,0.3-1.4,0.9v4.5h-1.1V293h1.1l0,0.7 c0.4-0.6,0.9-0.8,1.5-0.8c0.2,0,0.4,0,0.5,0.1V294z" class="st2"/><path id="XMLID_1743_" d="M305.2,291.5v1.5h1.2v0.8h-1.2v3.9c0,0.3,0.1,0.4,0.2,0.6c0.1,0.1,0.3,0.2,0.5,0.2 c0.1,0,0.3,0,0.5-0.1v0.9c-0.3,0.1-0.6,0.1-0.8,0.1c-0.5,0-0.8-0.1-1.1-0.4s-0.4-0.7-0.4-1.2v-3.9H303V293h1.2v-1.5H305.2z" class="st2"/><path id="XMLID_1740_" d="M307.7,291.3c0-0.2,0.1-0.3,0.2-0.4s0.3-0.2,0.5-0.2s0.4,0.1,0.5,0.2s0.2,0.3,0.2,0.4 s-0.1,0.3-0.2,0.4s-0.3,0.2-0.5,0.2s-0.4-0.1-0.5-0.2S307.7,291.5,307.7,291.3z M308.8,299.3h-1.1V293h1.1V299.3z" class="st2"/><path id="XMLID_1738_" d="M313.6,294c-0.2,0-0.3,0-0.5,0c-0.7,0-1.2,0.3-1.4,0.9v4.5h-1.1V293h1.1l0,0.7 c0.4-0.6,0.9-0.8,1.5-0.8c0.2,0,0.4,0,0.5,0.1V294z" class="st2"/><path id="XMLID_1735_" d="M314.6,298.8c0-0.2,0.1-0.3,0.2-0.5s0.3-0.2,0.5-0.2s0.4,0.1,0.5,0.2s0.2,0.3,0.2,0.5 c0,0.2-0.1,0.3-0.2,0.5s-0.3,0.2-0.5,0.2s-0.4-0.1-0.5-0.2S314.6,298.9,314.6,298.8z M314.6,293.6c0-0.2,0.1-0.3,0.2-0.5 s0.3-0.2,0.5-0.2s0.4,0.1,0.5,0.2s0.2,0.3,0.2,0.5c0,0.2-0.1,0.3-0.2,0.5s-0.3,0.2-0.5,0.2s-0.4-0.1-0.5-0.2 S314.6,293.8,314.6,293.6z" class="st2"/><path id="XMLID_1733_" d="M321.6,293.8c0.5-0.6,1.1-0.9,1.9-0.9c1.3,0,2,0.8,2,2.3v4.2h-1.1v-4.2 c0-0.5-0.1-0.8-0.3-1s-0.5-0.3-1-0.3c-0.4,0-0.7,0.1-0.9,0.3s-0.5,0.4-0.6,0.7v4.5h-1.1v-9h1.1V293.8z" class="st2"/><path id="XMLID_1731_" d="M328.6,291.5v1.5h1.2v0.8h-1.2v3.9c0,0.3,0.1,0.4,0.2,0.6c0.1,0.1,0.3,0.2,0.5,0.2 c0.1,0,0.3,0,0.5-0.1v0.9c-0.3,0.1-0.6,0.1-0.8,0.1c-0.5,0-0.8-0.1-1.1-0.4s-0.4-0.7-0.4-1.2v-3.9h-1.2V293h1.2v-1.5H328.6z" class="st2"/><path id="XMLID_1729_" d="M332.5,291.5v1.5h1.2v0.8h-1.2v3.9c0,0.3,0.1,0.4,0.2,0.6c0.1,0.1,0.3,0.2,0.5,0.2 c0.1,0,0.3,0,0.5-0.1v0.9c-0.3,0.1-0.6,0.1-0.8,0.1c-0.5,0-0.8-0.1-1.1-0.4s-0.4-0.7-0.4-1.2v-3.9h-1.2V293h1.2v-1.5H332.5z" class="st2"/><path id="XMLID_1726_" d="M340.3,296.2c0,1-0.2,1.7-0.7,2.3s-1,0.9-1.8,0.9c-0.8,0-1.4-0.2-1.8-0.7v3.1h-1.1V293h1 l0.1,0.7c0.4-0.5,1.1-0.8,1.8-0.8c0.8,0,1.4,0.3,1.8,0.9S340.3,295.1,340.3,296.2L340.3,296.2z M339.2,296.1 c0-0.7-0.2-1.3-0.5-1.7s-0.7-0.6-1.3-0.6c-0.7,0-1.1,0.3-1.5,0.9v3c0.3,0.6,0.8,0.9,1.5,0.9c0.5,0,0.9-0.2,1.2-0.6 S339.2,296.9,339.2,296.1z" class="st2"/><path id="XMLID_1724_" d="M345.4,297.6c0-0.3-0.1-0.5-0.3-0.7s-0.6-0.3-1.2-0.4s-1-0.3-1.3-0.4s-0.6-0.4-0.7-0.6 s-0.2-0.5-0.2-0.8c0-0.5,0.2-1,0.7-1.3s1-0.5,1.7-0.5c0.7,0,1.3,0.2,1.7,0.6s0.7,0.8,0.7,1.4h-1.1c0-0.3-0.1-0.6-0.4-0.8 s-0.6-0.3-1-0.3c-0.4,0-0.7,0.1-0.9,0.3s-0.3,0.4-0.3,0.7c0,0.3,0.1,0.5,0.3,0.6s0.6,0.3,1.1,0.4s1,0.3,1.3,0.4s0.6,0.4,0.7,0.6 s0.2,0.5,0.2,0.9c0,0.6-0.2,1-0.7,1.4s-1,0.5-1.8,0.5c-0.5,0-1-0.1-1.3-0.3s-0.7-0.4-0.9-0.8s-0.3-0.7-0.3-1h1.1 c0,0.4,0.2,0.7,0.4,0.9s0.6,0.3,1.1,0.3c0.4,0,0.7-0.1,1-0.2S345.4,297.9,345.4,297.6z" class="st2"/><path id="XMLID_1721_" d="M347.8,298.8c0-0.2,0.1-0.3,0.2-0.5s0.3-0.2,0.5-0.2s0.4,0.1,0.5,0.2s0.2,0.3,0.2,0.5 c0,0.2-0.1,0.3-0.2,0.5s-0.3,0.2-0.5,0.2s-0.4-0.1-0.5-0.2S347.8,298.9,347.8,298.8z M347.8,293.6c0-0.2,0.1-0.3,0.2-0.5 s0.3-0.2,0.5-0.2s0.4,0.1,0.5,0.2s0.2,0.3,0.2,0.5c0,0.2-0.1,0.3-0.2,0.5s-0.3,0.2-0.5,0.2s-0.4-0.1-0.5-0.2 S347.8,293.8,347.8,293.6z" class="st2"/><path id="XMLID_1719_" d="M351,300.1h-0.9l3.6-9.3h0.9L351,300.1z" class="st2"/><path id="XMLID_1717_" d="M354.6,300.1h-0.9l3.6-9.3h0.9L354.6,300.1z" class="st2"/><path id="XMLID_1714_" d="M359.1,296.1c0-1,0.2-1.8,0.7-2.3s1.1-0.9,1.8-0.9c0.7,0,1.3,0.3,1.8,0.8v-3.3h1.1v9h-1 l-0.1-0.7c-0.4,0.5-1,0.8-1.8,0.8c-0.7,0-1.3-0.3-1.8-0.9S359.1,297.2,359.1,296.1L359.1,296.1z M360.2,296.2 c0,0.7,0.1,1.3,0.4,1.7s0.7,0.6,1.2,0.6c0.7,0,1.2-0.3,1.5-0.9v-2.9c-0.3-0.6-0.8-0.9-1.5-0.9c-0.5,0-0.9,0.2-1.2,0.6 S360.2,295.4,360.2,296.2z" class="st2"/><path id="XMLID_1711_" d="M370,299.3c-0.1-0.1-0.1-0.3-0.2-0.7c-0.5,0.5-1.1,0.8-1.8,0.8c-0.6,0-1.1-0.2-1.5-0.5 s-0.6-0.8-0.6-1.3c0-0.7,0.3-1.2,0.8-1.5s1.2-0.5,2.1-0.5h1.1V295c0-0.4-0.1-0.7-0.3-0.9s-0.6-0.3-1-0.3c-0.4,0-0.7,0.1-1,0.3 s-0.4,0.4-0.4,0.7h-1.1c0-0.3,0.1-0.6,0.3-0.9s0.5-0.5,0.9-0.7s0.8-0.3,1.3-0.3c0.7,0,1.3,0.2,1.7,0.5s0.6,0.9,0.6,1.5v2.9 c0,0.6,0.1,1,0.2,1.4v0.1H370z M368.2,298.5c0.3,0,0.7-0.1,1-0.3s0.5-0.4,0.7-0.7v-1.3H369c-1.3,0-2,0.4-2,1.2 c0,0.3,0.1,0.6,0.3,0.8S367.9,298.5,368.2,298.5z" class="st2"/><path id="XMLID_1709_" d="M374.1,291.5v1.5h1.2v0.8h-1.2v3.9c0,0.3,0.1,0.4,0.2,0.6c0.1,0.1,0.3,0.2,0.5,0.2 c0.1,0,0.3,0,0.5-0.1v0.9c-0.3,0.1-0.6,0.1-0.8,0.1c-0.5,0-0.8-0.1-1.1-0.4s-0.4-0.7-0.4-1.2v-3.9h-1.2V293h1.2v-1.5H374.1z" class="st2"/><path id="XMLID_1706_" d="M376.2,296.1c0-0.6,0.1-1.2,0.4-1.7s0.6-0.9,1-1.1s0.9-0.4,1.5-0.4c0.9,0,1.6,0.3,2.1,0.9 s0.8,1.4,0.8,2.4v0.1c0,0.6-0.1,1.2-0.4,1.7s-0.6,0.9-1,1.1s-0.9,0.4-1.5,0.4c-0.9,0-1.6-0.3-2.1-0.9S376.2,297.2,376.2,296.1 L376.2,296.1z M377.3,296.2c0,0.7,0.2,1.3,0.5,1.7s0.8,0.6,1.3,0.6c0.6,0,1-0.2,1.3-0.6s0.5-1,0.5-1.8c0-0.7-0.2-1.3-0.5-1.7 s-0.8-0.6-1.3-0.6c-0.5,0-1,0.2-1.3,0.6S377.3,295.4,377.3,296.2z" class="st2"/><path id="XMLID_1704_" d="M387,297.6c0-0.3-0.1-0.5-0.3-0.7s-0.6-0.3-1.2-0.4s-1-0.3-1.3-0.4s-0.6-0.4-0.7-0.6 s-0.2-0.5-0.2-0.8c0-0.5,0.2-1,0.7-1.3s1-0.5,1.7-0.5c0.7,0,1.3,0.2,1.7,0.6s0.7,0.8,0.7,1.4h-1.1c0-0.3-0.1-0.6-0.4-0.8 s-0.6-0.3-1-0.3c-0.4,0-0.7,0.1-0.9,0.3s-0.3,0.4-0.3,0.7c0,0.3,0.1,0.5,0.3,0.6s0.6,0.3,1.1,0.4s1,0.3,1.3,0.4s0.6,0.4,0.7,0.6 s0.2,0.5,0.2,0.9c0,0.6-0.2,1-0.7,1.4s-1,0.5-1.8,0.5c-0.5,0-1-0.1-1.3-0.3s-0.7-0.4-0.9-0.8s-0.3-0.7-0.3-1h1.1 c0,0.4,0.2,0.7,0.4,0.9s0.6,0.3,1.1,0.3c0.4,0,0.7-0.1,1-0.2S387,297.9,387,297.6z" class="st2"/><path id="XMLID_1702_" d="M389.5,298.8c0-0.2,0.1-0.3,0.2-0.5s0.3-0.2,0.5-0.2s0.4,0.1,0.5,0.2s0.2,0.3,0.2,0.5 c0,0.2-0.1,0.3-0.2,0.5s-0.3,0.2-0.5,0.2s-0.4-0.1-0.5-0.2S389.5,298.9,389.5,298.8z" class="st2"/><path id="XMLID_1699_" d="M392.4,296.1c0-1,0.2-1.8,0.7-2.4s1.1-0.9,1.8-0.9c0.8,0,1.4,0.3,1.8,0.8l0.1-0.7h1v6.2 c0,0.8-0.2,1.5-0.7,1.9s-1.1,0.7-2,0.7c-0.5,0-0.9-0.1-1.3-0.3s-0.8-0.5-1-0.8l0.6-0.7c0.5,0.6,1,0.9,1.7,0.9 c0.5,0,0.9-0.1,1.2-0.4s0.4-0.7,0.4-1.3v-0.5c-0.4,0.5-1,0.8-1.8,0.8c-0.7,0-1.3-0.3-1.8-0.9S392.4,297.1,392.4,296.1z M393.5,296.2c0,0.7,0.1,1.3,0.4,1.7s0.7,0.6,1.2,0.6c0.7,0,1.2-0.3,1.5-0.9v-2.9c-0.3-0.6-0.8-0.9-1.5-0.9 c-0.5,0-0.9,0.2-1.2,0.6S393.5,295.4,393.5,296.2z" class="st2"/><path id="XMLID_1696_" d="M399.1,296.1c0-0.6,0.1-1.2,0.4-1.7s0.6-0.9,1-1.1s0.9-0.4,1.5-0.4c0.9,0,1.6,0.3,2.1,0.9 s0.8,1.4,0.8,2.4v0.1c0,0.6-0.1,1.2-0.4,1.7s-0.6,0.9-1,1.1s-0.9,0.4-1.5,0.4c-0.9,0-1.6-0.3-2.1-0.9S399.1,297.2,399.1,296.1 L399.1,296.1z M400.2,296.2c0,0.7,0.2,1.3,0.5,1.7s0.8,0.6,1.3,0.6c0.6,0,1-0.2,1.3-0.6s0.5-1,0.5-1.8c0-0.7-0.2-1.3-0.5-1.7 s-0.8-0.6-1.3-0.6c-0.5,0-1,0.2-1.3,0.6S400.2,295.4,400.2,296.2z" class="st2"/><path id="XMLID_1693_" d="M411.6,296.2c0,1-0.2,1.7-0.7,2.3s-1,0.9-1.8,0.9c-0.8,0-1.4-0.3-1.9-0.8l-0.1,0.7h-1v-9 h1.1v3.4c0.4-0.5,1-0.8,1.8-0.8s1.4,0.3,1.8,0.9S411.6,295.1,411.6,296.2L411.6,296.2z M410.5,296.1c0-0.7-0.1-1.3-0.4-1.7 s-0.7-0.6-1.2-0.6c-0.7,0-1.2,0.3-1.5,1v2.7c0.3,0.7,0.8,1,1.6,1c0.5,0,0.9-0.2,1.2-0.6S410.5,296.9,410.5,296.1z" class="st2"/><path id="XMLID_1691_" d="M413,298.8c0-0.2,0.1-0.3,0.2-0.5s0.3-0.2,0.5-0.2s0.4,0.1,0.5,0.2s0.2,0.3,0.2,0.5 c0,0.2-0.1,0.3-0.2,0.5s-0.3,0.2-0.5,0.2s-0.4-0.1-0.5-0.2S413,298.9,413,298.8z" class="st2"/><path id="XMLID_1688_" d="M420,299.3c-0.1-0.1-0.1-0.3-0.2-0.7c-0.5,0.5-1.1,0.8-1.8,0.8c-0.6,0-1.1-0.2-1.5-0.5 s-0.6-0.8-0.6-1.3c0-0.7,0.3-1.2,0.8-1.5s1.2-0.5,2.1-0.5h1.1V295c0-0.4-0.1-0.7-0.3-0.9s-0.6-0.3-1-0.3c-0.4,0-0.7,0.1-1,0.3 s-0.4,0.4-0.4,0.7h-1.1c0-0.3,0.1-0.6,0.3-0.9s0.5-0.5,0.9-0.7s0.8-0.3,1.3-0.3c0.7,0,1.3,0.2,1.7,0.5s0.6,0.9,0.6,1.5v2.9 c0,0.6,0.1,1,0.2,1.4v0.1H420z M418.2,298.5c0.3,0,0.7-0.1,1-0.3s0.5-0.4,0.7-0.7v-1.3H419c-1.3,0-2,0.4-2,1.2 c0,0.3,0.1,0.6,0.3,0.8S417.9,298.5,418.2,298.5z" class="st2"/><path id="XMLID_1686_" d="M425.7,294c-0.2,0-0.3,0-0.5,0c-0.7,0-1.2,0.3-1.4,0.9v4.5h-1.1V293h1.1l0,0.7 c0.4-0.6,0.9-0.8,1.5-0.8c0.2,0,0.4,0,0.5,0.1V294z" class="st2"/><path id="XMLID_1684_" d="M426.9,300.1H426l3.6-9.3h0.9L426.9,300.1z" class="st2"/><path id="XMLID_1682_" d="M435.3,297.6c0-0.3-0.1-0.5-0.3-0.7s-0.6-0.3-1.2-0.4s-1-0.3-1.3-0.4s-0.6-0.4-0.7-0.6 s-0.2-0.5-0.2-0.8c0-0.5,0.2-1,0.7-1.3s1-0.5,1.7-0.5c0.7,0,1.3,0.2,1.7,0.6s0.7,0.8,0.7,1.4h-1.1c0-0.3-0.1-0.6-0.4-0.8 s-0.6-0.3-1-0.3c-0.4,0-0.7,0.1-0.9,0.3s-0.3,0.4-0.3,0.7c0,0.3,0.1,0.5,0.3,0.6s0.6,0.3,1.1,0.4s1,0.3,1.3,0.4s0.6,0.4,0.7,0.6 s0.2,0.5,0.2,0.9c0,0.6-0.2,1-0.7,1.4s-1,0.5-1.8,0.5c-0.5,0-1-0.1-1.3-0.3s-0.7-0.4-0.9-0.8s-0.3-0.7-0.3-1h1.1 c0,0.4,0.2,0.7,0.4,0.9s0.6,0.3,1.1,0.3c0.4,0,0.7-0.1,1-0.2S435.3,297.9,435.3,297.6z" class="st2"/><path id="XMLID_1679_" d="M440.5,299.4c-0.9,0-1.6-0.3-2.1-0.8s-0.8-1.3-0.8-2.3v-0.2c0-0.6,0.1-1.2,0.4-1.7 s0.6-0.9,1-1.2s0.9-0.4,1.4-0.4c0.8,0,1.5,0.3,1.9,0.8s0.7,1.3,0.7,2.3v0.5h-4.3c0,0.6,0.2,1.1,0.5,1.5s0.8,0.6,1.3,0.6 c0.4,0,0.7-0.1,1-0.2s0.5-0.4,0.7-0.6l0.7,0.5C442.3,299,441.5,299.4,440.5,299.4z M440.3,293.8c-0.4,0-0.8,0.2-1.1,0.5 s-0.5,0.8-0.6,1.3h3.2v-0.1c0-0.6-0.2-1-0.4-1.3S440.8,293.8,440.3,293.8z" class="st2"/><path id="XMLID_1677_" d="M447.2,294c-0.2,0-0.3,0-0.5,0c-0.7,0-1.2,0.3-1.4,0.9v4.5h-1.1V293h1.1l0,0.7 c0.4-0.6,0.9-0.8,1.5-0.8c0.2,0,0.4,0,0.5,0.1V294z" class="st2"/><path id="XMLID_1675_" d="M447.5,298.8c0-0.2,0.1-0.3,0.2-0.5s0.3-0.2,0.5-0.2s0.4,0.1,0.5,0.2s0.2,0.3,0.2,0.5 c0,0.2-0.1,0.3-0.2,0.5s-0.3,0.2-0.5,0.2s-0.4-0.1-0.5-0.2S447.5,298.9,447.5,298.8z" class="st2"/><path id="XMLID_1673_" d="M450.7,298.8c0-0.2,0.1-0.3,0.2-0.5s0.3-0.2,0.5-0.2s0.4,0.1,0.5,0.2s0.2,0.3,0.2,0.5 c0,0.2-0.1,0.3-0.2,0.5s-0.3,0.2-0.5,0.2s-0.4-0.1-0.5-0.2S450.7,298.9,450.7,298.8z" class="st2"/><path id="XMLID_1671_" d="M453.9,298.8c0-0.2,0.1-0.3,0.2-0.5s0.3-0.2,0.5-0.2s0.4,0.1,0.5,0.2s0.2,0.3,0.2,0.5 c0,0.2-0.1,0.3-0.2,0.5s-0.3,0.2-0.5,0.2s-0.4-0.1-0.5-0.2S453.9,298.9,453.9,298.8z" class="st2"/></g></g><g><g id="XMLID_1629_"><path id="XMLID_1851_" d="M481.2,297.6c-0.2,0.3-0.5,0.5-0.9,0.7c-0.4,0.2-0.8,0.2-1.4,0.2c-0.5,0-1-0.1-1.4-0.4 c-0.4-0.2-0.7-0.6-0.9-1c-0.2-0.5-0.3-1-0.3-1.6V295c0-1,0.2-1.7,0.7-2.2c0.4-0.5,1.1-0.8,1.9-0.8c0.7,0,1.2,0.2,1.6,0.5 c0.4,0.3,0.7,0.8,0.7,1.5h-0.8c-0.2-0.8-0.7-1.3-1.5-1.3c-0.6,0-1,0.2-1.3,0.6c-0.3,0.4-0.4,1-0.4,1.7v0.5 c0,0.7,0.2,1.3,0.5,1.7s0.8,0.6,1.3,0.6c0.3,0,0.6,0,0.8-0.1c0.2-0.1,0.4-0.2,0.6-0.4V296h-1.5v-0.7h2.3V297.6z" class="st14"/><path id="XMLID_1849_" d="M485.4,298c-0.3,0.4-0.8,0.6-1.4,0.6c-0.5,0-0.9-0.1-1.2-0.4c-0.3-0.3-0.4-0.7-0.4-1.3 v-3.1h0.8v3.1c0,0.7,0.3,1.1,0.9,1.1c0.6,0,1-0.2,1.2-0.7v-3.5h0.8v4.8h-0.8L485.4,298z" class="st14"/><path id="XMLID_1846_" d="M490.3,298.5c0-0.1-0.1-0.3-0.1-0.5c-0.4,0.4-0.8,0.6-1.4,0.6c-0.5,0-0.9-0.1-1.2-0.4 c-0.3-0.3-0.5-0.6-0.5-1c0-0.5,0.2-0.9,0.6-1.2c0.4-0.3,0.9-0.4,1.6-0.4h0.8v-0.4c0-0.3-0.1-0.5-0.3-0.7 c-0.2-0.2-0.4-0.3-0.8-0.3c-0.3,0-0.5,0.1-0.7,0.2s-0.3,0.3-0.3,0.5h-0.8c0-0.2,0.1-0.5,0.3-0.7c0.2-0.2,0.4-0.4,0.7-0.5 c0.3-0.1,0.6-0.2,1-0.2c0.5,0,1,0.1,1.3,0.4s0.5,0.7,0.5,1.1v2.2c0,0.4,0.1,0.8,0.2,1v0.1H490.3z M489,297.8 c0.3,0,0.5-0.1,0.7-0.2s0.4-0.3,0.5-0.5v-1h-0.6c-1,0-1.5,0.3-1.5,0.9c0,0.3,0.1,0.5,0.3,0.6S488.7,297.8,489,297.8z" class="st14"/><path id="XMLID_1844_" d="M494.6,294.4c-0.1,0-0.3,0-0.4,0c-0.5,0-0.9,0.2-1.1,0.7v3.4h-0.8v-4.8h0.8l0,0.5 c0.3-0.4,0.6-0.6,1.1-0.6c0.2,0,0.3,0,0.4,0.1V294.4z" class="st14"/><path id="XMLID_1841_" d="M495.1,296c0-0.7,0.2-1.3,0.5-1.8c0.3-0.4,0.8-0.7,1.4-0.7c0.6,0,1,0.2,1.3,0.6v-2.5h0.8 v6.8h-0.7l0-0.5c-0.3,0.4-0.8,0.6-1.4,0.6c-0.6,0-1-0.2-1.3-0.7C495.2,297.4,495.1,296.8,495.1,296L495.1,296z M495.9,296.1 c0,0.5,0.1,1,0.3,1.3s0.5,0.5,0.9,0.5c0.5,0,0.9-0.2,1.1-0.7V295c-0.2-0.4-0.6-0.7-1.1-0.7c-0.4,0-0.7,0.2-0.9,0.5 S495.9,295.5,495.9,296.1z" class="st14"/><path id="XMLID_1838_" d="M503.3,298.5c0-0.1-0.1-0.3-0.1-0.5c-0.4,0.4-0.8,0.6-1.4,0.6c-0.5,0-0.9-0.1-1.2-0.4 c-0.3-0.3-0.5-0.6-0.5-1c0-0.5,0.2-0.9,0.6-1.2c0.4-0.3,0.9-0.4,1.6-0.4h0.8v-0.4c0-0.3-0.1-0.5-0.3-0.7 c-0.2-0.2-0.4-0.3-0.8-0.3c-0.3,0-0.5,0.1-0.7,0.2s-0.3,0.3-0.3,0.5h-0.8c0-0.2,0.1-0.5,0.3-0.7c0.2-0.2,0.4-0.4,0.7-0.5 c0.3-0.1,0.6-0.2,1-0.2c0.5,0,1,0.1,1.3,0.4s0.5,0.7,0.5,1.1v2.2c0,0.4,0.1,0.8,0.2,1v0.1H503.3z M501.9,297.8 c0.3,0,0.5-0.1,0.7-0.2s0.4-0.3,0.5-0.5v-1h-0.6c-1,0-1.5,0.3-1.5,0.9c0,0.3,0.1,0.5,0.3,0.6S501.7,297.8,501.9,297.8z" class="st14"/><path id="XMLID_1835_" d="M509.4,298.5c-0.6,0-1.2-0.2-1.6-0.6s-0.6-1-0.6-1.7v-0.2c0-0.5,0.1-0.9,0.3-1.3 c0.2-0.4,0.4-0.7,0.8-0.9c0.3-0.2,0.7-0.3,1.1-0.3c0.6,0,1.1,0.2,1.4,0.6c0.3,0.4,0.5,1,0.5,1.7v0.3h-3.2c0,0.5,0.1,0.8,0.4,1.1 c0.3,0.3,0.6,0.4,1,0.4c0.3,0,0.5-0.1,0.7-0.2s0.4-0.3,0.5-0.5l0.5,0.4C510.8,298.2,510.2,298.5,509.4,298.5z M509.3,294.3 c-0.3,0-0.6,0.1-0.8,0.4s-0.4,0.6-0.4,1h2.4v-0.1c0-0.4-0.1-0.7-0.3-1S509.7,294.3,509.3,294.3z" class="st14"/><path id="XMLID_1833_" d="M515,297.2c0-0.2-0.1-0.4-0.2-0.5c-0.2-0.1-0.5-0.2-0.9-0.3c-0.4-0.1-0.7-0.2-1-0.3 c-0.2-0.1-0.4-0.3-0.5-0.4c-0.1-0.2-0.2-0.4-0.2-0.6c0-0.4,0.2-0.7,0.5-1c0.3-0.3,0.8-0.4,1.3-0.4c0.5,0,1,0.1,1.3,0.4 c0.3,0.3,0.5,0.6,0.5,1.1H515c0-0.2-0.1-0.4-0.3-0.6c-0.2-0.2-0.4-0.2-0.7-0.2c-0.3,0-0.5,0.1-0.7,0.2s-0.3,0.3-0.3,0.5 c0,0.2,0.1,0.3,0.2,0.4s0.4,0.2,0.8,0.3c0.4,0.1,0.7,0.2,1,0.3c0.3,0.1,0.4,0.3,0.6,0.5c0.1,0.2,0.2,0.4,0.2,0.6 c0,0.4-0.2,0.8-0.5,1c-0.3,0.3-0.8,0.4-1.3,0.4c-0.4,0-0.7-0.1-1-0.2s-0.5-0.3-0.7-0.6c-0.2-0.2-0.2-0.5-0.2-0.8h0.8 c0,0.3,0.1,0.5,0.3,0.6c0.2,0.2,0.5,0.2,0.8,0.2c0.3,0,0.6-0.1,0.7-0.2C514.9,297.6,515,297.4,515,297.2z" class="st14"/><path id="XMLID_1831_" d="M518,292.5v1.2h0.9v0.6H518v3c0,0.2,0,0.3,0.1,0.4s0.2,0.1,0.4,0.1c0.1,0,0.2,0,0.4-0.1 v0.7c-0.2,0.1-0.4,0.1-0.6,0.1c-0.4,0-0.6-0.1-0.8-0.3c-0.2-0.2-0.3-0.5-0.3-0.9v-2.9h-0.9v-0.6h0.9v-1.2H518z" class="st14"/><path id="XMLID_1828_" d="M521.8,298.5c-0.6,0-1.2-0.2-1.6-0.6s-0.6-1-0.6-1.7v-0.2c0-0.5,0.1-0.9,0.3-1.3 c0.2-0.4,0.4-0.7,0.8-0.9c0.3-0.2,0.7-0.3,1.1-0.3c0.6,0,1.1,0.2,1.4,0.6c0.3,0.4,0.5,1,0.5,1.7v0.3h-3.2c0,0.5,0.1,0.8,0.4,1.1 c0.3,0.3,0.6,0.4,1,0.4c0.3,0,0.5-0.1,0.7-0.2s0.4-0.3,0.5-0.5l0.5,0.4C523.2,298.2,522.6,298.5,521.8,298.5z M521.7,294.3 c-0.3,0-0.6,0.1-0.8,0.4s-0.4,0.6-0.4,1h2.4v-0.1c0-0.4-0.1-0.7-0.3-1S522,294.3,521.7,294.3z" class="st14"/><path id="XMLID_1826_" d="M527.7,298.5h-0.8v-6.8h0.8V298.5z" class="st14"/><path id="XMLID_1823_" d="M529,292.4c0-0.1,0-0.2,0.1-0.3c0.1-0.1,0.2-0.1,0.4-0.1s0.3,0,0.4,0.1 c0.1,0.1,0.1,0.2,0.1,0.3c0,0.1,0,0.2-0.1,0.3s-0.2,0.1-0.4,0.1s-0.3,0-0.4-0.1C529,292.7,529,292.6,529,292.4z M529.9,298.5 h-0.8v-4.8h0.8V298.5z" class="st14"/><path id="XMLID_1821_" d="M531.9,293.7l0,0.6c0.4-0.5,0.8-0.7,1.4-0.7c1,0,1.5,0.6,1.5,1.7v3.1h-0.8v-3.1 c0-0.3-0.1-0.6-0.2-0.8c-0.2-0.2-0.4-0.2-0.7-0.2c-0.3,0-0.5,0.1-0.7,0.2s-0.4,0.3-0.5,0.6v3.4h-0.8v-4.8H531.9z" class="st14"/><path id="XMLID_1819_" d="M537.5,296.2l-0.5,0.5v1.7h-0.8v-6.8h0.8v4.1l0.4-0.5l1.5-1.6h1l-1.9,2l2.1,2.8h-1 L537.5,296.2z" class="st14"/><path id="XMLID_1816_" d="M547,296.1c0,0.7-0.2,1.3-0.5,1.8c-0.3,0.4-0.8,0.7-1.3,0.7c-0.6,0-1-0.2-1.4-0.5v2.3 h-0.8v-6.6h0.7l0,0.5c0.3-0.4,0.8-0.6,1.4-0.6c0.6,0,1,0.2,1.4,0.6C546.8,294.7,547,295.3,547,296.1L547,296.1z M546.1,296 c0-0.5-0.1-1-0.3-1.3s-0.5-0.5-0.9-0.5c-0.5,0-0.9,0.2-1.1,0.7v2.3c0.2,0.4,0.6,0.7,1.1,0.7c0.4,0,0.7-0.2,0.9-0.5 C546,297.1,546.1,296.6,546.1,296z" class="st14"/><path id="XMLID_1813_" d="M550.9,298.5c0-0.1-0.1-0.3-0.1-0.5c-0.4,0.4-0.8,0.6-1.4,0.6c-0.5,0-0.9-0.1-1.2-0.4 c-0.3-0.3-0.5-0.6-0.5-1c0-0.5,0.2-0.9,0.6-1.2c0.4-0.3,0.9-0.4,1.6-0.4h0.8v-0.4c0-0.3-0.1-0.5-0.3-0.7 c-0.2-0.2-0.4-0.3-0.8-0.3c-0.3,0-0.5,0.1-0.7,0.2s-0.3,0.3-0.3,0.5h-0.8c0-0.2,0.1-0.5,0.3-0.7c0.2-0.2,0.4-0.4,0.7-0.5 c0.3-0.1,0.6-0.2,1-0.2c0.5,0,1,0.1,1.3,0.4s0.5,0.7,0.5,1.1v2.2c0,0.4,0.1,0.8,0.2,1v0.1H550.9z M549.6,297.8 c0.3,0,0.5-0.1,0.7-0.2s0.4-0.3,0.5-0.5v-1h-0.6c-1,0-1.5,0.3-1.5,0.9c0,0.3,0.1,0.5,0.3,0.6S549.3,297.8,549.6,297.8z" class="st14"/><path id="XMLID_1811_" d="M555.2,294.4c-0.1,0-0.3,0-0.4,0c-0.5,0-0.9,0.2-1.1,0.7v3.4h-0.8v-4.8h0.8l0,0.5 c0.3-0.4,0.6-0.6,1.1-0.6c0.2,0,0.3,0,0.4,0.1V294.4z" class="st14"/><path id="XMLID_1808_" d="M558.7,298.5c0-0.1-0.1-0.3-0.1-0.5c-0.4,0.4-0.8,0.6-1.4,0.6c-0.5,0-0.9-0.1-1.2-0.4 c-0.3-0.3-0.5-0.6-0.5-1c0-0.5,0.2-0.9,0.6-1.2c0.4-0.3,0.9-0.4,1.6-0.4h0.8v-0.4c0-0.3-0.1-0.5-0.3-0.7 c-0.2-0.2-0.4-0.3-0.8-0.3c-0.3,0-0.5,0.1-0.7,0.2s-0.3,0.3-0.3,0.5h-0.8c0-0.2,0.1-0.5,0.3-0.7c0.2-0.2,0.4-0.4,0.7-0.5 c0.3-0.1,0.6-0.2,1-0.2c0.5,0,1,0.1,1.3,0.4s0.5,0.7,0.5,1.1v2.2c0,0.4,0.1,0.8,0.2,1v0.1H558.7z M557.3,297.8 c0.3,0,0.5-0.1,0.7-0.2s0.4-0.3,0.5-0.5v-1h-0.6c-1,0-1.5,0.3-1.5,0.9c0,0.3,0.1,0.5,0.3,0.6S557.1,297.8,557.3,297.8z" class="st14"/><path id="XMLID_1805_" d="M565.8,298.5c0-0.1-0.1-0.3-0.1-0.5c-0.4,0.4-0.8,0.6-1.4,0.6c-0.5,0-0.9-0.1-1.2-0.4 c-0.3-0.3-0.5-0.6-0.5-1c0-0.5,0.2-0.9,0.6-1.2c0.4-0.3,0.9-0.4,1.6-0.4h0.8v-0.4c0-0.3-0.1-0.5-0.3-0.7 c-0.2-0.2-0.4-0.3-0.8-0.3c-0.3,0-0.5,0.1-0.7,0.2s-0.3,0.3-0.3,0.5h-0.8c0-0.2,0.1-0.5,0.3-0.7c0.2-0.2,0.4-0.4,0.7-0.5 c0.3-0.1,0.6-0.2,1-0.2c0.5,0,1,0.1,1.3,0.4s0.5,0.7,0.5,1.1v2.2c0,0.4,0.1,0.8,0.2,1v0.1H565.8z M564.5,297.8 c0.3,0,0.5-0.1,0.7-0.2s0.4-0.3,0.5-0.5v-1H565c-1,0-1.5,0.3-1.5,0.9c0,0.3,0.1,0.5,0.3,0.6S564.2,297.8,564.5,297.8z" class="st14"/><path id="XMLID_1803_" d="M570.7,298c-0.3,0.4-0.8,0.6-1.4,0.6c-0.5,0-0.9-0.1-1.2-0.4c-0.3-0.3-0.4-0.7-0.4-1.3 v-3.1h0.8v3.1c0,0.7,0.3,1.1,0.9,1.1c0.6,0,1-0.2,1.2-0.7v-3.5h0.8v4.8h-0.8L570.7,298z" class="st14"/><path id="XMLID_1801_" d="M573.8,292.5v1.2h0.9v0.6h-0.9v3c0,0.2,0,0.3,0.1,0.4s0.2,0.1,0.4,0.1 c0.1,0,0.2,0,0.4-0.1v0.7c-0.2,0.1-0.4,0.1-0.6,0.1c-0.4,0-0.6-0.1-0.8-0.3c-0.2-0.2-0.3-0.5-0.3-0.9v-2.9h-0.9v-0.6h0.9v-1.2 H573.8z" class="st14"/><path id="XMLID_1798_" d="M575.4,296c0-0.5,0.1-0.9,0.3-1.3c0.2-0.4,0.4-0.7,0.8-0.9c0.3-0.2,0.7-0.3,1.1-0.3 c0.6,0,1.2,0.2,1.6,0.7c0.4,0.4,0.6,1,0.6,1.8v0.1c0,0.5-0.1,0.9-0.3,1.2c-0.2,0.4-0.4,0.7-0.8,0.9c-0.3,0.2-0.7,0.3-1.1,0.3 c-0.6,0-1.2-0.2-1.6-0.7C575.6,297.4,575.4,296.8,575.4,296L575.4,296z M576.2,296.1c0,0.5,0.1,1,0.4,1.3c0.2,0.3,0.6,0.5,1,0.5 c0.4,0,0.7-0.2,1-0.5c0.2-0.3,0.4-0.8,0.4-1.4c0-0.5-0.1-0.9-0.4-1.3c-0.2-0.3-0.6-0.5-1-0.5c-0.4,0-0.7,0.2-1,0.5 C576.3,295.1,576.2,295.5,576.2,296.1z" class="st14"/><path id="XMLID_1796_" d="M581.5,293.7l0,0.5c0.3-0.4,0.8-0.6,1.4-0.6c0.7,0,1.1,0.3,1.4,0.8 c0.2-0.2,0.4-0.4,0.6-0.6c0.3-0.1,0.6-0.2,0.9-0.2c1,0,1.6,0.6,1.6,1.7v3.2h-0.8v-3.1c0-0.3-0.1-0.6-0.2-0.8 c-0.2-0.2-0.4-0.3-0.8-0.3c-0.3,0-0.6,0.1-0.8,0.3c-0.2,0.2-0.3,0.4-0.3,0.7v3.2h-0.8v-3.1c0-0.7-0.3-1-1-1 c-0.5,0-0.9,0.2-1.1,0.7v3.5h-0.8v-4.8H581.5z" class="st14"/><path id="XMLID_1793_" d="M591.5,298.5c0-0.1-0.1-0.3-0.1-0.5c-0.4,0.4-0.8,0.6-1.4,0.6c-0.5,0-0.9-0.1-1.2-0.4 c-0.3-0.3-0.5-0.6-0.5-1c0-0.5,0.2-0.9,0.6-1.2c0.4-0.3,0.9-0.4,1.6-0.4h0.8v-0.4c0-0.3-0.1-0.5-0.3-0.7 c-0.2-0.2-0.4-0.3-0.8-0.3c-0.3,0-0.5,0.1-0.7,0.2c-0.2,0.1-0.3,0.3-0.3,0.5h-0.8c0-0.2,0.1-0.5,0.3-0.7 c0.2-0.2,0.4-0.4,0.7-0.5c0.3-0.1,0.6-0.2,1-0.2c0.5,0,1,0.1,1.3,0.4s0.5,0.7,0.5,1.1v2.2c0,0.4,0.1,0.8,0.2,1v0.1H591.5z M590.2,297.8c0.3,0,0.5-0.1,0.7-0.2s0.4-0.3,0.5-0.5v-1h-0.6c-1,0-1.5,0.3-1.5,0.9c0,0.3,0.1,0.5,0.3,0.6 C589.7,297.8,589.9,297.8,590.2,297.8z" class="st14"/><path id="XMLID_1791_" d="M594.6,292.5v1.2h0.9v0.6h-0.9v3c0,0.2,0,0.3,0.1,0.4c0.1,0.1,0.2,0.1,0.4,0.1 c0.1,0,0.2,0,0.4-0.1v0.7c-0.2,0.1-0.4,0.1-0.6,0.1c-0.4,0-0.6-0.1-0.8-0.3c-0.2-0.2-0.3-0.5-0.3-0.9v-2.9h-0.9v-0.6h0.9v-1.2 H594.6z" class="st14"/><path id="XMLID_1788_" d="M596.4,292.4c0-0.1,0-0.2,0.1-0.3c0.1-0.1,0.2-0.1,0.4-0.1s0.3,0,0.4,0.1 c0.1,0.1,0.1,0.2,0.1,0.3c0,0.1,0,0.2-0.1,0.3s-0.2,0.1-0.4,0.1s-0.3,0-0.4-0.1C596.5,292.7,596.4,292.6,596.4,292.4z M597.3,298.5h-0.8v-4.8h0.8V298.5z" class="st14"/><path id="XMLID_1786_" d="M599.4,297.8h2.8v0.7h-3.8v-0.6l2.6-3.5h-2.6v-0.7h3.6v0.6L599.4,297.8z" class="st14"/><path id="XMLID_1668_" d="M606,298.5c0-0.1-0.1-0.3-0.1-0.5c-0.4,0.4-0.8,0.6-1.4,0.6c-0.5,0-0.9-0.1-1.2-0.4 c-0.3-0.3-0.5-0.6-0.5-1c0-0.5,0.2-0.9,0.6-1.2c0.4-0.3,0.9-0.4,1.6-0.4h0.8v-0.4c0-0.3-0.1-0.5-0.3-0.7 c-0.2-0.2-0.4-0.3-0.8-0.3c-0.3,0-0.5,0.1-0.7,0.2s-0.3,0.3-0.3,0.5H603c0-0.2,0.1-0.5,0.3-0.7c0.2-0.2,0.4-0.4,0.7-0.5 c0.3-0.1,0.6-0.2,1-0.2c0.5,0,1,0.1,1.3,0.4s0.5,0.7,0.5,1.1v2.2c0,0.4,0.1,0.8,0.2,1v0.1H606z M604.7,297.8 c0.3,0,0.5-0.1,0.7-0.2s0.4-0.3,0.5-0.5v-1h-0.6c-1,0-1.5,0.3-1.5,0.9c0,0.3,0.1,0.5,0.3,0.6S604.4,297.8,604.7,297.8z" class="st14"/><path id="XMLID_1666_" d="M610.3,294.4c-0.1,0-0.3,0-0.4,0c-0.5,0-0.9,0.2-1.1,0.7v3.4H608v-4.8h0.8l0,0.5 c0.3-0.4,0.6-0.6,1.1-0.6c0.2,0,0.3,0,0.4,0.1V294.4z" class="st14"/><path id="XMLID_1663_" d="M615.2,298.5c-0.6,0-1.2-0.2-1.6-0.6s-0.6-1-0.6-1.7v-0.2c0-0.5,0.1-0.9,0.3-1.3 c0.2-0.4,0.4-0.7,0.8-0.9c0.3-0.2,0.7-0.3,1.1-0.3c0.6,0,1.1,0.2,1.4,0.6c0.3,0.4,0.5,1,0.5,1.7v0.3h-3.2c0,0.5,0.1,0.8,0.4,1.1 c0.3,0.3,0.6,0.4,1,0.4c0.3,0,0.5-0.1,0.7-0.2s0.4-0.3,0.5-0.5l0.5,0.4C616.6,298.2,616,298.5,615.2,298.5z M615.1,294.3 c-0.3,0-0.6,0.1-0.8,0.4s-0.4,0.6-0.4,1h2.4v-0.1c0-0.4-0.1-0.7-0.3-1S615.5,294.3,615.1,294.3z" class="st14"/><path id="XMLID_1661_" d="M620.8,297.2c0-0.2-0.1-0.4-0.2-0.5c-0.2-0.1-0.5-0.2-0.9-0.3c-0.4-0.1-0.7-0.2-1-0.3 c-0.2-0.1-0.4-0.3-0.5-0.4c-0.1-0.2-0.2-0.4-0.2-0.6c0-0.4,0.2-0.7,0.5-1c0.3-0.3,0.8-0.4,1.3-0.4c0.5,0,1,0.1,1.3,0.4 c0.3,0.3,0.5,0.6,0.5,1.1h-0.8c0-0.2-0.1-0.4-0.3-0.6c-0.2-0.2-0.4-0.2-0.7-0.2c-0.3,0-0.5,0.1-0.7,0.2 c-0.2,0.1-0.3,0.3-0.3,0.5c0,0.2,0.1,0.3,0.2,0.4c0.2,0.1,0.4,0.2,0.8,0.3c0.4,0.1,0.7,0.2,1,0.3c0.3,0.1,0.4,0.3,0.6,0.5 c0.1,0.2,0.2,0.4,0.2,0.6c0,0.4-0.2,0.8-0.5,1c-0.3,0.3-0.8,0.4-1.3,0.4c-0.4,0-0.7-0.1-1-0.2s-0.5-0.3-0.7-0.6 c-0.2-0.2-0.2-0.5-0.2-0.8h0.8c0,0.3,0.1,0.5,0.3,0.6c0.2,0.2,0.5,0.2,0.8,0.2c0.3,0,0.6-0.1,0.7-0.2 C620.7,297.6,620.8,297.4,620.8,297.2z" class="st14"/><path id="XMLID_1659_" d="M623.8,292.5v1.2h0.9v0.6h-0.9v3c0,0.2,0,0.3,0.1,0.4c0.1,0.1,0.2,0.1,0.4,0.1 c0.1,0,0.2,0,0.4-0.1v0.7c-0.2,0.1-0.4,0.1-0.6,0.1c-0.4,0-0.6-0.1-0.8-0.3c-0.2-0.2-0.3-0.5-0.3-0.9v-2.9h-0.9v-0.6h0.9v-1.2 H623.8z" class="st14"/><path id="XMLID_1656_" d="M628.5,298.5c0-0.1-0.1-0.3-0.1-0.5c-0.4,0.4-0.8,0.6-1.4,0.6c-0.5,0-0.9-0.1-1.2-0.4 c-0.3-0.3-0.5-0.6-0.5-1c0-0.5,0.2-0.9,0.6-1.2c0.4-0.3,0.9-0.4,1.6-0.4h0.8v-0.4c0-0.3-0.1-0.5-0.3-0.7 c-0.2-0.2-0.4-0.3-0.8-0.3c-0.3,0-0.5,0.1-0.7,0.2s-0.3,0.3-0.3,0.5h-0.8c0-0.2,0.1-0.5,0.3-0.7c0.2-0.2,0.4-0.4,0.7-0.5 c0.3-0.1,0.6-0.2,1-0.2c0.5,0,1,0.1,1.3,0.4s0.5,0.7,0.5,1.1v2.2c0,0.4,0.1,0.8,0.2,1v0.1H628.5z M627.2,297.8 c0.3,0,0.5-0.1,0.7-0.2s0.4-0.3,0.5-0.5v-1h-0.6c-1,0-1.5,0.3-1.5,0.9c0,0.3,0.1,0.5,0.3,0.6S626.9,297.8,627.2,297.8z" class="st14"/><path id="XMLID_1653_" d="M636.7,296.1c0,0.7-0.2,1.3-0.5,1.8s-0.8,0.7-1.3,0.7c-0.6,0-1.1-0.2-1.4-0.6l0,0.5h-0.7 v-6.8h0.8v2.5c0.3-0.4,0.8-0.6,1.4-0.6c0.6,0,1,0.2,1.4,0.7C636.6,294.7,636.7,295.3,636.7,296.1L636.7,296.1z M635.9,296 c0-0.6-0.1-1-0.3-1.3c-0.2-0.3-0.5-0.5-0.9-0.5c-0.5,0-0.9,0.3-1.2,0.7v2.1c0.2,0.5,0.6,0.7,1.2,0.7c0.4,0,0.7-0.2,0.9-0.5 S635.9,296.6,635.9,296z" class="st14"/><path id="XMLID_1648_" d="M637.8,292.4c0-0.1,0-0.2,0.1-0.3c0.1-0.1,0.2-0.1,0.4-0.1s0.3,0,0.4,0.1 c0.1,0.1,0.1,0.2,0.1,0.3c0,0.1,0,0.2-0.1,0.3s-0.2,0.1-0.4,0.1s-0.3,0-0.4-0.1C637.8,292.7,637.8,292.6,637.8,292.4z M638.7,298.5h-0.8v-4.8h0.8V298.5z M640.8,293.7v5.3c0,0.9-0.4,1.4-1.2,1.4c-0.2,0-0.3,0-0.5-0.1v-0.6c0.1,0,0.2,0,0.4,0 c0.2,0,0.3,0,0.4-0.1c0.1-0.1,0.1-0.3,0.1-0.5v-5.3H640.8z M639.9,292.4c0-0.1,0-0.2,0.1-0.3c0.1-0.1,0.2-0.1,0.4-0.1 c0.2,0,0.3,0,0.4,0.1c0.1,0.1,0.1,0.2,0.1,0.3c0,0.1,0,0.2-0.1,0.3s-0.2,0.1-0.4,0.1s-0.3,0-0.4-0.1 C639.9,292.7,639.9,292.6,639.9,292.4z" class="st14"/><path id="XMLID_1646_" d="M644.9,297.2c0-0.2-0.1-0.4-0.2-0.5c-0.2-0.1-0.5-0.2-0.9-0.3c-0.4-0.1-0.7-0.2-1-0.3 c-0.2-0.1-0.4-0.3-0.5-0.4c-0.1-0.2-0.2-0.4-0.2-0.6c0-0.4,0.2-0.7,0.5-1c0.3-0.3,0.8-0.4,1.3-0.4c0.5,0,1,0.1,1.3,0.4 c0.3,0.3,0.5,0.6,0.5,1.1h-0.8c0-0.2-0.1-0.4-0.3-0.6c-0.2-0.2-0.4-0.2-0.7-0.2c-0.3,0-0.5,0.1-0.7,0.2s-0.3,0.3-0.3,0.5 c0,0.2,0.1,0.3,0.2,0.4s0.4,0.2,0.8,0.3c0.4,0.1,0.7,0.2,1,0.3c0.3,0.1,0.4,0.3,0.6,0.5c0.1,0.2,0.2,0.4,0.2,0.6 c0,0.4-0.2,0.8-0.5,1c-0.3,0.3-0.8,0.4-1.3,0.4c-0.4,0-0.7-0.1-1-0.2s-0.5-0.3-0.7-0.6c-0.2-0.2-0.2-0.5-0.2-0.8h0.8 c0,0.3,0.1,0.5,0.3,0.6c0.2,0.2,0.5,0.2,0.8,0.2c0.3,0,0.6-0.1,0.7-0.2C644.8,297.6,644.9,297.4,644.9,297.2z" class="st14"/><path id="XMLID_1643_" d="M646.5,296c0-0.7,0.2-1.3,0.5-1.8c0.3-0.4,0.8-0.7,1.4-0.7c0.6,0,1,0.2,1.3,0.6l0-0.5 h0.7v6.6h-0.8V298c-0.3,0.4-0.8,0.5-1.3,0.5c-0.6,0-1-0.2-1.4-0.7C646.7,297.4,646.5,296.8,646.5,296L646.5,296z M647.4,296.1 c0,0.5,0.1,1,0.3,1.3c0.2,0.3,0.5,0.5,0.9,0.5c0.5,0,0.9-0.2,1.1-0.6v-2.3c-0.3-0.4-0.6-0.6-1.1-0.6c-0.4,0-0.7,0.2-0.9,0.5 C647.5,295.1,647.4,295.5,647.4,296.1z" class="st14"/><path id="XMLID_1641_" d="M654.8,298c-0.3,0.4-0.8,0.6-1.4,0.6c-0.5,0-0.9-0.1-1.2-0.4c-0.3-0.3-0.4-0.7-0.4-1.3 v-3.1h0.8v3.1c0,0.7,0.3,1.1,0.9,1.1c0.6,0,1-0.2,1.2-0.7v-3.5h0.8v4.8h-0.8L654.8,298z" class="st14"/><path id="XMLID_1638_" d="M658.8,298.5c-0.6,0-1.2-0.2-1.6-0.6s-0.6-1-0.6-1.7v-0.2c0-0.5,0.1-0.9,0.3-1.3 c0.2-0.4,0.4-0.7,0.8-0.9c0.3-0.2,0.7-0.3,1.1-0.3c0.6,0,1.1,0.2,1.4,0.6c0.3,0.4,0.5,1,0.5,1.7v0.3h-3.2c0,0.5,0.1,0.8,0.4,1.1 c0.3,0.3,0.6,0.4,1,0.4c0.3,0,0.5-0.1,0.7-0.2s0.4-0.3,0.5-0.5l0.5,0.4C660.2,298.2,659.6,298.5,658.8,298.5z M658.7,294.3 c-0.3,0-0.6,0.1-0.8,0.4s-0.4,0.6-0.4,1h2.4v-0.1c0-0.4-0.1-0.7-0.3-1S659,294.3,658.7,294.3z" class="st14"/><path id="XMLID_1635_" d="M661.4,296c0-0.7,0.2-1.3,0.5-1.8c0.3-0.4,0.8-0.7,1.4-0.7c0.6,0,1,0.2,1.3,0.6v-2.5h0.8 v6.8h-0.7l0-0.5c-0.3,0.4-0.8,0.6-1.4,0.6c-0.6,0-1-0.2-1.3-0.7C661.6,297.4,661.4,296.8,661.4,296L661.4,296z M662.2,296.1 c0,0.5,0.1,1,0.3,1.3s0.5,0.5,0.9,0.5c0.5,0,0.9-0.2,1.1-0.7V295c-0.2-0.4-0.6-0.7-1.1-0.7c-0.4,0-0.7,0.2-0.9,0.5 S662.2,295.5,662.2,296.1z" class="st14"/><path id="XMLID_1632_" d="M669.6,298.5c0-0.1-0.1-0.3-0.1-0.5c-0.4,0.4-0.8,0.6-1.4,0.6c-0.5,0-0.9-0.1-1.2-0.4 c-0.3-0.3-0.5-0.6-0.5-1c0-0.5,0.2-0.9,0.6-1.2c0.4-0.3,0.9-0.4,1.6-0.4h0.8v-0.4c0-0.3-0.1-0.5-0.3-0.7 c-0.2-0.2-0.4-0.3-0.8-0.3c-0.3,0-0.5,0.1-0.7,0.2c-0.2,0.1-0.3,0.3-0.3,0.5h-0.8c0-0.2,0.1-0.5,0.3-0.7 c0.2-0.2,0.4-0.4,0.7-0.5c0.3-0.1,0.6-0.2,1-0.2c0.5,0,1,0.1,1.3,0.4s0.5,0.7,0.5,1.1v2.2c0,0.4,0.1,0.8,0.2,1v0.1H669.6z M668.3,297.8c0.3,0,0.5-0.1,0.7-0.2s0.4-0.3,0.5-0.5v-1h-0.6c-1,0-1.5,0.3-1.5,0.9c0,0.3,0.1,0.5,0.3,0.6 C667.8,297.8,668,297.8,668.3,297.8z" class="st14"/><path id="XMLID_1630_" d="M671.6,298c0-0.1,0-0.3,0.1-0.4c0.1-0.1,0.2-0.1,0.4-0.1c0.2,0,0.3,0,0.4,0.1 c0.1,0.1,0.1,0.2,0.1,0.4c0,0.1,0,0.2-0.1,0.3c-0.1,0.1-0.2,0.1-0.4,0.1c-0.2,0-0.3,0-0.4-0.1 C671.6,298.3,671.6,298.2,671.6,298z" class="st14"/></g></g></g></g></svg>